<svg width="41" height="87" viewBox="0 0 41 87" fill="none" xmlns="http://www.w3.org/2000/svg">
<path fill-rule="evenodd" clip-rule="evenodd" d="M41 18.8225C41.0872 11.5363 36.2894 3.98995 30.3574 0.173402C29.5723 -0.347037 28.5255 0.173402 28.5255 1.12754L28.4383 16.1335C28.4383 16.8274 27.9149 17.3479 27.217 17.3479H14.1319C13.434 17.3479 12.9106 16.8274 12.9106 16.1335L13.1723 1.21428C13.1723 0.346881 12.2128 -0.260297 11.4277 0.086662C4.79787 3.38277 -4.69992e-06 10.7557 -4.69992e-06 18.649C-0.0872387 26.8025 4.27446 34.0887 11.166 37.298C11.6021 37.4715 11.8638 37.9052 11.8638 38.4256V78.4994C11.7766 80.8414 12.8234 83.0099 14.3936 84.5712C16.0511 86.0458 18.1447 86.9999 20.5872 86.9999C23.0298 86.9999 25.1234 86.0458 26.6936 84.4845C28.3511 83.0099 29.2234 80.8414 29.3979 78.4994L29.3106 38.4256C29.3106 37.9052 29.5723 37.5582 30.0085 37.298C36.8128 33.9152 41 26.976 41 18.8225Z" fill="url(#paint0_linear_375_397)"/>
<defs>
<linearGradient id="paint0_linear_375_397" x1="20.5201" y1="-7.78052e-05" x2="20.5201" y2="86.9736" gradientUnits="userSpaceOnUse">
<stop stop-color="#009378"/>
<stop offset="1" stop-color="#4EB066"/>
</linearGradient>
</defs>
</svg>
