<svg width="99" height="55" viewBox="0 0 99 55" fill="none" xmlns="http://www.w3.org/2000/svg">
<path d="M98.2152 41.0264H89.6382C86.1065 41.0264 83.3035 37.1138 83.3035 32.251V27.0528C83.3035 22.19 86.1625 18.2774 89.6382 18.2774H98.2152C98.944 18.2774 99.2803 16.9919 98.7197 16.3211L93.6184 10.5081C92.4972 9.22256 91.0397 8.49593 89.5821 8.49593H73.4372V2.17988C73.4372 0.950203 72.7084 0 71.8675 0H27.5249C26.628 0 25.9553 1.0061 25.9553 2.17988V8.49593H9.64216C8.18463 8.49593 6.7271 9.22256 5.60592 10.5081L0.448501 16.3211C-0.112087 16.9919 0.224266 18.2774 0.953031 18.2774H9.53004C13.0618 18.2774 15.8647 22.19 15.8647 27.0528V32.251C15.8647 37.1138 13.0057 41.0264 9.53004 41.0264H0.953031C0.50456 41.0264 0.168207 41.5295 0.168207 42.1443V44.6595C0.168207 45.2744 0.50456 45.7774 0.953031 45.7774H25.8992V52.7083C25.8992 53.938 26.628 54.8882 27.4689 54.8882H71.8115C72.7084 54.8882 73.3811 53.8821 73.3811 52.7083V45.7774H98.1031C98.5515 45.7774 98.8879 45.2744 98.8879 44.6595V42.1443C99 41.5295 98.6076 41.0264 98.2152 41.0264Z" fill="url(#paint0_linear_375_400)"/>
<path d="M25.9553 55.4469C25.8432 55.4469 25.731 55.3911 25.6189 55.3352C25.3947 55.1675 25.2826 54.8321 25.5068 54.5526L43.5578 29.5679C43.7259 29.3443 44.0623 29.2325 44.3426 29.4561C44.5668 29.6238 44.6789 29.9591 44.4547 30.2386L26.4038 55.1675C26.2916 55.3352 26.1235 55.4469 25.9553 55.4469Z" fill="white"/>
<path d="M36.5504 56.9002C36.4383 56.9002 36.3262 56.8443 36.214 56.7884C35.9337 56.6207 35.8777 56.2854 36.1019 56.0059L43.5017 45.386C43.6699 45.1065 44.0062 45.0506 44.2865 45.2742C44.5668 45.4419 44.6229 45.7772 44.3986 46.0567L36.9989 56.6766C36.9428 56.7884 36.7746 56.9002 36.5504 56.9002Z" fill="white"/>
<path d="M17.4343 48.4045C17.3222 48.4045 17.2101 48.3486 17.098 48.2927C16.8737 48.125 16.8177 47.7337 16.9858 47.5102L41.6518 14.4766C41.8199 14.253 42.2123 14.1971 42.4366 14.3648C42.6608 14.5325 42.7169 14.9238 42.5487 15.1474L17.8828 48.1809C17.7707 48.3486 17.6025 48.4045 17.4343 48.4045Z" fill="white"/>
<path d="M7.17553 47.1187C7.06341 47.1187 6.95129 47.0628 6.83918 47.007C6.61494 46.8393 6.55888 46.5039 6.72706 46.2244L37.3913 4.02423C37.5594 3.80065 37.9519 3.74476 38.1761 3.91244C38.4003 4.08012 38.4564 4.41549 38.2882 4.69496L7.624 46.8952C7.51188 47.0628 7.34371 47.1187 7.17553 47.1187Z" fill="white"/>
<path d="M-2.63477 45.2183C-2.74689 45.2183 -2.85901 45.1624 -2.97113 45.1065C-3.19536 44.9388 -3.25142 44.6035 -3.08324 44.324L29.7112 -1.00629C29.8794 -1.22987 30.2718 -1.28576 30.496 -1.11808C30.7763 -0.950395 30.8324 -0.559135 30.6081 -0.335558L-2.1863 44.9947C-2.29842 45.1624 -2.4666 45.2183 -2.63477 45.2183Z" fill="white"/>
<path d="M-8.07246 36.8901C-8.18457 36.8901 -8.29669 36.8342 -8.40881 36.7784C-8.63305 36.6107 -8.6891 36.2753 -8.52093 35.9958L24.2735 -9.33446C24.4417 -9.55804 24.7781 -9.66982 25.0583 -9.44625C25.2826 -9.27856 25.3386 -8.9432 25.1705 -8.66373L-7.62399 36.6666C-7.7361 36.8342 -7.90428 36.8901 -8.07246 36.8901Z" fill="white"/>
<path d="M65.2526 55.7825C65.1404 55.7825 65.0283 55.7266 64.9162 55.6707C64.692 55.503 64.6359 55.1677 64.8041 54.8882L96.9258 10.5081C97.094 10.2845 97.4304 10.2286 97.7107 10.3963C97.9349 10.564 97.991 10.8994 97.8228 11.1788L65.701 55.5589C65.5889 55.7266 65.4207 55.7825 65.2526 55.7825Z" fill="white"/>
<path d="M70.2978 64.055C70.1857 64.055 70.0736 63.9991 69.9615 63.9432C69.7373 63.7755 69.6812 63.4401 69.8494 63.1606L97.1501 25.5997C97.3182 25.3761 97.6546 25.3202 97.9349 25.4879C98.1591 25.6556 98.2152 25.9909 98.047 26.2704L70.7463 63.8314C70.6342 63.9991 70.466 64.055 70.2978 64.055Z" fill="white"/>
<path d="M79.8279 67.1289C79.7157 67.1289 79.6036 67.073 79.4915 67.0171C79.2673 66.8495 79.2112 66.5141 79.3794 66.2346L106.68 28.6736C106.848 28.4501 107.185 28.3942 107.465 28.5619C107.689 28.7295 107.745 29.0649 107.577 29.3444L80.2763 66.9054C80.1642 67.073 79.996 67.1289 79.8279 67.1289Z" fill="white"/>
<path d="M56.0029 53.6584C55.8907 53.6584 55.7786 53.6025 55.6665 53.5466C55.4423 53.379 55.3862 53.0436 55.5544 52.7641L89.2458 6.20416C89.414 5.98058 89.7503 5.92469 90.0306 6.09237C90.2548 6.26005 90.3109 6.59542 90.1427 6.87489L56.4513 53.4349C56.3392 53.5466 56.171 53.6584 56.0029 53.6584Z" fill="white"/>
<path d="M56.059 38.5669C55.9468 38.5669 55.8347 38.5111 55.7226 38.4552C55.4984 38.2875 55.4423 37.9521 55.6105 37.6726L84.0884 -1.73285C84.2566 -1.95643 84.5929 -2.01232 84.8732 -1.84464C85.0975 -1.67696 85.1535 -1.34159 84.9853 -1.06212L56.5074 38.3434C56.3953 38.4552 56.2271 38.5669 56.059 38.5669Z" fill="white"/>
<path d="M56.2832 23.4197C56.1711 23.4197 56.059 23.3638 55.9468 23.3079C55.6665 23.1402 55.6105 22.8048 55.8347 22.5254L74.7826 -4.19212C74.9508 -4.4157 75.2871 -4.52749 75.5674 -4.30391C75.8477 -4.13623 75.9038 -3.80086 75.6795 -3.52139L56.7317 23.1961C56.6756 23.3638 56.5074 23.4197 56.2832 23.4197Z" fill="white"/>
<path d="M56.0589 55.7823C55.7225 55.7823 55.4983 55.5587 55.4983 55.2233V20.4012C55.4983 20.3453 55.4983 20.2335 55.5543 20.1776L63.9632 -1.06224C64.0753 -1.34171 64.4116 -1.50939 64.6919 -1.3976C64.9722 -1.28581 65.1404 -0.950447 65.0283 -0.670976L56.6195 20.513V55.2233C56.6195 55.5587 56.3392 55.7823 56.0589 55.7823Z" fill="white"/>
<path d="M44.2305 55.559C43.8941 55.559 43.6699 55.3354 43.6699 55V20.2897L35.3171 -0.838387C35.205 -1.11786 35.3171 -1.45322 35.6535 -1.56501C35.9338 -1.6768 36.2701 -1.56501 36.3822 -1.22965L44.7911 20.0102C44.7911 20.0661 44.8471 20.122 44.8471 20.2338V55.0559C44.7911 55.2795 44.5668 55.559 44.2305 55.559Z" fill="white"/>
<defs>
<linearGradient id="paint0_linear_375_400" x1="49.5716" y1="0.487566" x2="49.5716" y2="54.9723" gradientUnits="userSpaceOnUse">
<stop stop-color="#009378"/>
<stop offset="1" stop-color="#4EB066"/>
</linearGradient>
</defs>
</svg>
