<svg width="104" height="58" viewBox="0 0 104 58" fill="none" xmlns="http://www.w3.org/2000/svg">
<path d="M101.625 15.8107H86.8031V2.29379C86.8031 0.983051 85.7386 0 84.5102 0H19.6535C18.3433 0 17.3606 1.06497 17.3606 2.29379V15.7288H2.29291C0.982677 15.7288 0 16.7938 0 18.0226V39.1582C0 40.4689 1.06457 41.452 2.29291 41.452H17.3606V55.7062C17.3606 57.0169 18.4252 58 19.6535 58H84.4283C85.7386 58 86.7213 56.935 86.7213 55.7062V41.6158H101.625C102.935 41.6158 103.918 40.5508 103.918 39.322V18.1045C104 16.7938 102.935 15.8107 101.625 15.8107Z" fill="url(#paint0_linear_375_421)"/>
<path d="M51.3449 39.2402C51.263 39.2402 51.1811 39.2402 51.0992 39.2402L45.6126 37.6017C45.2032 37.4379 44.9575 37.0283 45.0394 36.6187C45.2032 36.2091 45.6126 35.9633 46.0221 36.0452L51.5087 37.6837C51.9181 37.8475 52.1638 38.2571 52.0819 38.6667C52.0819 38.9944 51.7543 39.2402 51.3449 39.2402Z" fill="white"/>
<path d="M46.1859 37.5199C45.8583 37.5199 45.5307 37.2741 45.4489 36.9464C45.2851 36.5368 45.5307 36.0453 45.9402 35.8815L55.9307 32.195L44.8756 26.2967C44.5481 26.1329 44.3843 25.7233 44.4662 25.3956C44.5481 25.0679 44.8756 24.7402 45.2032 24.7402L55.4394 24.1668L51.0174 21.6272C50.7717 21.4634 50.6079 21.2176 50.6079 20.8899V-1.63831C50.6079 -2.12984 50.9355 -2.45752 51.4268 -2.45752C51.9181 -2.45752 52.2457 -2.12984 52.2457 -1.63831V20.4803L58.715 24.1668C59.0426 24.3306 59.2063 24.7402 59.1244 25.0679C59.0426 25.3956 58.715 25.6413 58.3874 25.7233L48.315 26.2967L58.3874 31.7035C58.6331 31.8673 58.8788 32.195 58.7969 32.5227C58.7969 32.8504 58.5512 33.0961 58.2237 33.26L46.5134 37.6018C46.4315 37.5199 46.3496 37.5199 46.1859 37.5199Z" fill="white"/>
<path d="M52.0818 58.6555C51.5905 58.6555 51.2629 58.3278 51.2629 57.8362V38.5848C51.2629 38.0933 51.5905 37.7656 52.0818 37.7656C52.5732 37.7656 52.9007 38.0933 52.9007 38.5848V57.9182C52.9007 58.3278 52.4913 58.6555 52.0818 58.6555Z" fill="white"/>
<defs>
<linearGradient id="paint0_linear_375_421" x1="51.985" y1="0.504551" x2="51.985" y2="58.1225" gradientUnits="userSpaceOnUse">
<stop stop-color="#009378"/>
<stop offset="1" stop-color="#4EB066"/>
</linearGradient>
</defs>
</svg>
