<svg width="72" height="72" viewBox="0 0 72 72" fill="none" xmlns="http://www.w3.org/2000/svg">
<path d="M35.5 71C55.1061 71 71 55.1061 71 35.5C71 15.8939 55.1061 0 35.5 0C15.8939 0 0 15.8939 0 35.5C0 55.1061 15.8939 71 35.5 71Z" fill="url(#paint0_linear_375_426)"/>
<path d="M35.5 50.7001C27.1 50.7001 20.3 43.9 20.3 35.5C20.3 27.1 27.1 20.3 35.5 20.3C43.9 20.3 50.7 27.1 50.7 35.5C50.7 43.9 43.9 50.7001 35.5 50.7001ZM35.5 22.4C28.2 22.4 22.3 28.3 22.3 35.6C22.3 42.9 28.2 48.8 35.5 48.8C42.8 48.8 48.7 42.9 48.7 35.6C48.7 28.3 42.8 22.4 35.5 22.4Z" fill="white"/>
<path d="M35.5 56.6C23.9 56.6 14.4 47.2 14.4 35.5C14.4 23.9 23.8 14.4 35.5 14.4C47.2 14.4 56.6 23.8 56.6 35.5C56.6 47.1 47.1 56.6 35.5 56.6ZM35.5 16.5C25 16.5 16.5 25 16.5 35.5C16.5 46 25 54.6 35.5 54.6C46 54.6 54.6 46 54.6 35.5C54.6 25 46 16.5 35.5 16.5Z" fill="white"/>
<path d="M43.6 43.6H27.4V27.4H43.6V43.6ZM29.4 41.6H41.6V29.4H29.4V41.6Z" fill="white"/>
<path d="M18.3 46.7C18 46.7 17.8 46.6 17.6 46.4C17.2 46 17.2 45.4 17.6 45L27.4 35.2C27.8 34.8 28.4 34.8 28.8 35.2C29.2 35.6 29.2 36.2 28.8 36.6L19 46.4C18.8 46.6 18.5 46.7 18.3 46.7Z" fill="white"/>
<path d="M35.5 29.4001C35.2 29.4001 35 29.3001 34.8 29.1001C34.4 28.7001 34.4 28.1001 34.8 27.7001L44.5 18.0001C44.9 17.6001 45.5 17.6001 45.9 18.0001C46.3 18.4001 46.3 19.0001 45.9 19.4001L36.2 29.1001C36 29.3001 35.8 29.4001 35.5 29.4001Z" fill="white"/>
<path d="M16.4 40.8C16.1 40.8 15.9 40.7 15.7 40.5C15.3 40.1 15.3 39.5 15.7 39.1L39.1 15.7C39.5 15.3 40.1 15.3 40.5 15.7C40.9 16.1 40.9 16.7 40.5 17.1L17.1 40.5C16.9 40.7 16.6 40.8 16.4 40.8Z" fill="white"/>
<path d="M15.8 34.8C15.5 34.8 15.3 34.7 15.1 34.5C14.7 34.1 14.7 33.5 15.1 33.1L33.1 15.1C33.5 14.7 34.1 14.7 34.5 15.1C34.9 15.5 34.9 16.1 34.5 16.5L16.5 34.5C16.3 34.7 16 34.8 15.8 34.8Z" fill="white"/>
<path d="M31.2 56.1C30.9 56.1 30.7 56 30.5 55.8C30.1 55.4 30.1 54.8 30.5 54.4L54.5 30.4C54.9 30 55.5 30 55.9 30.4C56.3 30.8 56.3 31.4 55.9 31.8L31.9 55.8C31.7 56 31.4 56.1 31.2 56.1Z" fill="white"/>
<path d="M38 56.0999C37.7 56.0999 37.5 55.9999 37.3 55.7999C36.9 55.3999 36.9 54.7999 37.3 54.3999L54.6 37.0999C55 36.6999 55.6 36.6999 56 37.0999C56.4 37.4999 56.4 38.0999 56 38.4999L38.7 55.7999C38.5 55.9999 38.2 56.0999 38 56.0999Z" fill="white"/>
<path d="M25.8 53.8C25.5 53.8 25.3 53.7 25.1 53.5C24.7 53.1 24.7 52.4999 25.1 52.0999L35.2 42C35.6 41.6 36.2 41.6 36.6 42C37 42.4 37 43 36.6 43.4L26.5 53.5C26.3 53.7 26 53.8 25.8 53.8Z" fill="white"/>
<path d="M42.6 36.9C42.3 36.9 42.1 36.8 41.9 36.6C41.5 36.2 41.5 35.6 41.9 35.2L52.2 24.9C52.6 24.5 53.2 24.5 53.6 24.9C54 25.3 54 25.9 53.6 26.3L43.3 36.6C43.1 36.8 42.9 36.9 42.6 36.9Z" fill="white"/>
<path d="M21.8 51.1C21.5 51.1 21.3 51 21.1 50.8C20.7 50.4 20.7 49.8 21.1 49.4L28.6 41.9C29 41.5 29.6 41.5 30 41.9C30.4 42.3 30.4 42.9 30 43.3L22.5 50.8C22.3 51 22 51.1 21.8 51.1Z" fill="white"/>
<path d="M42.6 30.2C42.3 30.2 42.1 30.1 41.9 29.9C41.5 29.5 41.5 28.9 41.9 28.5L49.4 21C49.8 20.6 50.4 20.6 50.8 21C51.2 21.4 51.2 22 50.8 22.4L43.3 29.9C43.1 30.1 42.9 30.2 42.6 30.2Z" fill="white"/>
<defs>
<linearGradient id="paint0_linear_375_426" x1="35.5271" y1="0" x2="35.5271" y2="71.0543" gradientUnits="userSpaceOnUse">
<stop stop-color="#009378"/>
<stop offset="1" stop-color="#4EB066"/>
</linearGradient>
</defs>
</svg>
