<svg width="97" height="67" viewBox="0 0 97 67" fill="none" xmlns="http://www.w3.org/2000/svg">
<path d="M94.8732 13.8699H2.27884C1.06349 13.8699 0.151978 14.8552 0.151978 15.992V64.802C0.151978 65.9389 1.13945 66.9242 2.27884 66.9242H94.8732C96.0885 66.9242 97.0001 65.9389 97.0001 64.802V15.992C97.076 14.8552 96.0885 13.8699 94.8732 13.8699Z" fill="url(#paint0_linear_375_267)"/>
<path d="M38.1316 9.39816L48.3102 4.85065C48.1582 5.00223 48.0823 5.15381 48.0823 5.38119V13.7183H49.6015V5.38119C49.6015 5.3054 49.6015 5.3054 49.6015 5.2296L59.0204 9.39816C59.704 9.70132 60.5396 9.17078 60.5396 8.41286V1.06105C60.5396 0.303134 59.704 -0.227409 59.0204 0.0757582L48.8419 4.62327C48.69 4.62327 48.614 4.69906 48.538 4.69906L38.1316 0.0757582C37.448 -0.227409 36.6124 0.303134 36.6124 1.06105V8.41286C36.6124 9.17078 37.448 9.70132 38.1316 9.39816Z" fill="url(#paint1_linear_375_267)"/>
<path d="M48.0822 49.113C52.9066 49.113 56.8176 45.2107 56.8176 40.397C56.8176 35.5832 52.9066 31.6809 48.0822 31.6809C43.2579 31.6809 39.3469 35.5832 39.3469 40.397C39.3469 45.2107 43.2579 49.113 48.0822 49.113Z" fill="white"/>
<path d="M96.7721 54.0395H-0.379811C-0.759608 54.0395 -1.1394 53.7364 -1.1394 53.2816C-1.1394 52.9026 -0.835567 52.5237 -0.379811 52.5237H96.7721C97.1519 52.5237 97.5317 52.8268 97.5317 53.2816C97.5317 53.7364 97.2279 54.0395 96.7721 54.0395Z" fill="white"/>
<path d="M96.3164 28.3462H-0.379811C-0.759608 28.3462 -1.1394 28.043 -1.1394 27.5882C-1.1394 27.1335 -0.835567 26.8303 -0.379811 26.8303H96.3164C96.6962 26.8303 97.076 27.1335 97.076 27.5882C97.076 28.043 96.6962 28.3462 96.3164 28.3462Z" fill="white"/>
<path d="M78.9217 68.8949C78.7698 68.8949 78.5419 68.8191 78.39 68.6675C78.0862 68.3643 78.0862 67.9096 78.39 67.6064L92.6703 52.827C92.9742 52.5238 93.4299 52.5238 93.7338 52.827C94.0376 53.1302 94.0376 53.5849 93.7338 53.8881L79.5294 68.6675C79.3775 68.8191 79.1496 68.8949 78.9217 68.8949Z" fill="white"/>
<path d="M63.6539 68.5917C63.426 68.5917 63.2741 68.5159 63.1222 68.3643C62.8183 68.0611 62.8183 67.6064 63.1222 67.3032L77.7823 52.6754C78.0862 52.3722 78.5419 52.3722 78.8457 52.6754C79.1496 52.9785 79.1496 53.4333 78.8457 53.7365L64.1856 68.3643C64.0337 68.5159 63.8058 68.5917 63.6539 68.5917Z" fill="white"/>
<path d="M48.2342 68.4401C48.0063 68.4401 47.8544 68.3643 47.7025 68.2127C47.3987 67.9095 47.3987 67.4548 47.7025 67.1516L61.679 53.2059C61.9828 52.9027 62.4386 52.9027 62.7424 53.2059C63.0463 53.5091 63.0463 53.9638 62.7424 54.267L48.7659 68.2127C48.614 68.3643 48.4621 68.4401 48.2342 68.4401Z" fill="white"/>
<path d="M32.5106 68.7433C32.2827 68.7433 32.1308 68.6675 31.9789 68.5159C31.675 68.2127 31.675 67.758 31.9789 67.4548L46.639 52.827C46.9428 52.5238 47.3986 52.5238 47.7024 52.827C48.0063 53.1302 48.0063 53.5849 47.7024 53.8881L33.0423 68.5159C32.8904 68.6675 32.7384 68.7433 32.5106 68.7433Z" fill="white"/>
<path d="M16.1794 68.4401C15.9515 68.4401 15.7996 68.3643 15.6477 68.2127C15.3438 67.9095 15.3438 67.4548 15.6477 67.1516L30.1559 52.6754C30.4597 52.3722 30.9155 52.3722 31.2193 52.6754C31.5232 52.9785 31.5232 53.4333 31.2193 53.7365L16.7111 68.2127C16.5592 68.3643 16.4073 68.4401 16.1794 68.4401Z" fill="white"/>
<path d="M-1.36724 69.4255C-1.59512 69.4255 -1.74703 69.3497 -1.89895 69.1981C-2.20279 68.8949 -2.20279 68.4402 -1.89895 68.137L13.141 53.1302C13.4448 52.827 13.9006 52.827 14.2044 53.1302C14.5083 53.4334 14.5083 53.8881 14.2044 54.1913L-0.835523 69.1981C-0.987442 69.3497 -1.21532 69.4255 -1.36724 69.4255Z" fill="white"/>
<path d="M81.5043 28.1944C81.2765 28.1944 81.1245 28.1186 80.9726 27.967C80.6688 27.6638 80.6688 27.2091 80.9726 26.9059L95.4049 12.5055C95.7087 12.2023 96.1645 12.2023 96.4683 12.5055C96.7722 12.8086 96.7722 13.2634 96.4683 13.5665L82.0361 27.967C81.8841 28.1186 81.7322 28.1944 81.5043 28.1944Z" fill="white"/>
<path d="M65.9327 28.1945C65.7048 28.1945 65.5529 28.1187 65.401 27.9671C65.0971 27.6639 65.0971 27.2092 65.401 26.906L84.6946 7.65487C84.9985 7.3517 85.4542 7.3517 85.7581 7.65487C86.0619 7.95803 86.0619 8.41278 85.7581 8.71595L66.4644 27.9671C66.3125 28.1187 66.1606 28.1945 65.9327 28.1945Z" fill="white"/>
<path d="M50.6649 27.8912C50.437 27.8912 50.2851 27.8154 50.1332 27.6638C49.8293 27.3607 49.8293 26.9059 50.1332 26.6028L64.7933 11.9749C65.0971 11.6718 65.5529 11.6718 65.8567 11.9749C66.1606 12.2781 66.1606 12.7329 65.8567 13.036L51.1966 27.6638C51.0447 27.8154 50.8168 27.8912 50.6649 27.8912Z" fill="white"/>
<path d="M34.9414 28.1946C34.7135 28.1946 34.5616 28.1188 34.4096 27.9672C34.1058 27.664 34.1058 27.2093 34.4096 26.9061L48.9938 12.3541C49.2977 12.0509 49.7534 12.0509 50.0573 12.3541C50.3611 12.6573 50.3611 13.112 50.0573 13.4152L35.4731 27.9672C35.3212 28.1188 35.0933 28.1946 34.9414 28.1946Z" fill="white"/>
<path d="M18.3823 28.1187C18.1544 28.1187 18.0025 28.0429 17.8506 27.8913C17.5467 27.5882 17.5467 27.1334 17.8506 26.8302L34.1818 10.535C34.4856 10.2318 34.9414 10.2318 35.2452 10.535C35.5491 10.8382 35.5491 11.2929 35.2452 11.5961L18.914 27.8913C18.7621 28.0429 18.5342 28.1187 18.3823 28.1187Z" fill="white"/>
<path d="M2.05097 27.8913C1.8231 27.8913 1.67118 27.8155 1.51926 27.6639C1.21542 27.3608 1.21542 26.906 1.51926 26.6029L18.9899 9.17073C19.2937 8.86757 19.7495 8.86757 20.0533 9.17073C20.3572 9.4739 20.3572 9.92865 20.0533 10.2318L2.58269 27.6639C2.43077 27.8155 2.27885 27.8913 2.05097 27.8913Z" fill="white"/>
<defs>
<linearGradient id="paint0_linear_375_267" x1="48.5921" y1="-17.57" x2="48.5921" y2="100.99" gradientUnits="userSpaceOnUse">
<stop stop-color="#009378"/>
<stop offset="1" stop-color="#4EB066"/>
</linearGradient>
<linearGradient id="paint1_linear_375_267" x1="48.5922" y1="-8.1087" x2="48.5922" y2="22.4481" gradientUnits="userSpaceOnUse">
<stop stop-color="#009378"/>
<stop offset="1" stop-color="#4EB066"/>
</linearGradient>
</defs>
</svg>
