<svg width="62" height="83" viewBox="0 0 62 83" fill="none" xmlns="http://www.w3.org/2000/svg">
<g clip-path="url(#clip0_375_288)">
<path d="M54.1519 41.2083H54.0211V22.0296C54.0211 21.5112 53.7595 20.9929 53.3017 20.6689L44.2764 13.9304C43.8186 13.6065 43.557 13.0881 43.557 12.5698V1.81411C43.557 0.842215 42.6413 0.0646973 41.5295 0.0646973H20.1435C19.0316 0.0646973 18.116 0.842215 18.116 1.81411V12.5698C18.116 13.0881 17.8544 13.6065 17.3966 13.9304L8.37131 20.6689C7.9135 20.9929 7.6519 21.5112 7.6519 22.0296V40.9492C7.6519 41.4027 7.5211 41.7915 7.19409 42.1154C2.74683 47.4933 0 54.4261 0 62.0069C0 69.7821 2.87764 76.9094 7.6519 82.4168C7.9789 82.8055 8.50211 83.0647 9.02532 83.0647H53.1055C53.6287 83.0647 54.1519 82.8703 54.4789 82.4168C59.2532 76.9741 62 69.6525 62 61.8773C62 53.9078 59.057 46.7158 54.1519 41.2083Z" fill="url(#paint0_linear_375_288)"/>
<path d="M6.80168 41.2732H54.4135" stroke="white" stroke-width="2.105" stroke-miterlimit="10" stroke-linecap="round" stroke-linejoin="round"/>
<path d="M8.63292 71.402C10.1861 71.402 11.4452 70.1546 11.4452 68.6159C11.4452 67.0772 10.1861 65.8298 8.63292 65.8298C7.07976 65.8298 5.82068 67.0772 5.82068 68.6159C5.82068 70.1546 7.07976 71.402 8.63292 71.402Z" fill="white"/>
<path d="M19.9473 62.007C21.5004 62.007 22.7595 60.7596 22.7595 59.2209C22.7595 57.6822 21.5004 56.4348 19.9473 56.4348C18.3941 56.4348 17.135 57.6822 17.135 59.2209C17.135 60.7596 18.3941 62.007 19.9473 62.007Z" fill="white"/>
<path d="M31.327 52.5473C32.8802 52.5473 34.1392 51.2999 34.1392 49.7612C34.1392 48.2225 32.8802 46.9751 31.327 46.9751C29.7739 46.9751 28.5148 48.2225 28.5148 49.7612C28.5148 51.2999 29.7739 52.5473 31.327 52.5473Z" fill="white"/>
<path d="M30.7384 78.0756C32.2915 78.0756 33.5506 76.8282 33.5506 75.2895C33.5506 73.7508 32.2915 72.5034 30.7384 72.5034C29.1852 72.5034 27.9261 73.7508 27.9261 75.2895C27.9261 76.8282 29.1852 78.0756 30.7384 78.0756Z" fill="white"/>
<path d="M42.1181 68.6159C43.6713 68.6159 44.9303 67.3685 44.9303 65.8298C44.9303 64.2911 43.6713 63.0437 42.1181 63.0437C40.565 63.0437 39.3059 64.2911 39.3059 65.8298C39.3059 67.3685 40.565 68.6159 42.1181 68.6159Z" fill="white"/>
<path d="M53.4325 59.2209C54.9856 59.2209 56.2447 57.9735 56.2447 56.4348C56.2447 54.8961 54.9856 53.6487 53.4325 53.6487C51.8793 53.6487 50.6202 54.8961 50.6202 56.4348C50.6202 57.9735 51.8793 59.2209 53.4325 59.2209Z" fill="white"/>
</g>
<defs>
<linearGradient id="paint0_linear_375_288" x1="31.0156" y1="0.661183" x2="31.0156" y2="83.6244" gradientUnits="userSpaceOnUse">
<stop stop-color="#009378"/>
<stop offset="1" stop-color="#4EB066"/>
</linearGradient>
<clipPath id="clip0_375_288">
<rect width="62" height="83" fill="white"/>
</clipPath>
</defs>
</svg>
