<svg width="50" height="89" viewBox="0 0 50 89" fill="none" xmlns="http://www.w3.org/2000/svg">
<g clip-path="url(#clip0_375_300)">
<path d="M47.9491 89H1.83878C0.707238 89 -0.141418 88.0933 -0.141418 87.047V1.95298C-0.141418 0.90674 0.777959 0 1.83878 0H47.9491C49.0806 0 49.9293 0.90674 49.9293 1.95298V86.9773C50 88.0933 49.0806 89 47.9491 89Z" fill="url(#paint0_linear_375_300)"/>
<path d="M15.5587 -0.139404V89.8371" stroke="white" stroke-width="7" stroke-miterlimit="10"/>
<path d="M34.2291 89.2791V-0.139404" stroke="white" stroke-width="7" stroke-miterlimit="10"/>
<path d="M-0.848694 15.6237L12.7298 2.16211" stroke="white" stroke-width="2" stroke-miterlimit="10" stroke-linecap="round" stroke-linejoin="round"/>
<path d="M12.7298 15.6237L-0.919434 2.16211" stroke="white" stroke-width="2" stroke-miterlimit="10" stroke-linecap="round" stroke-linejoin="round"/>
<path d="M12.6591 29.9223L-0.990112 16.4607" stroke="white" stroke-width="2" stroke-miterlimit="10" stroke-linecap="round" stroke-linejoin="round"/>
<path d="M12.6591 44.4999L-0.990112 31.0383" stroke="white" stroke-width="2" stroke-miterlimit="10" stroke-linecap="round" stroke-linejoin="round"/>
<path d="M13.5785 59.8448L-0.848694 45.616" stroke="white" stroke-width="2" stroke-miterlimit="10" stroke-linecap="round" stroke-linejoin="round"/>
<path d="M13.7199 75.3289L-0.990112 60.821" stroke="white" stroke-width="2" stroke-miterlimit="10" stroke-linecap="round" stroke-linejoin="round"/>
<path d="M12.8005 88.9302L-0.848694 75.5383" stroke="white" stroke-width="2" stroke-miterlimit="10" stroke-linecap="round" stroke-linejoin="round"/>
<path d="M-0.990112 30.1314L12.7298 16.6001" stroke="white" stroke-width="2" stroke-miterlimit="10" stroke-linecap="round" stroke-linejoin="round"/>
<path d="M-0.777954 44.4998L12.7298 31.1079" stroke="white" stroke-width="2" stroke-miterlimit="10" stroke-linecap="round" stroke-linejoin="round"/>
<path d="M-1.06085 59.0776L12.7298 45.4067" stroke="white" stroke-width="2" stroke-miterlimit="10" stroke-linecap="round" stroke-linejoin="round"/>
<path d="M-0.777954 74.2131L13.5785 59.8447" stroke="white" stroke-width="2" stroke-miterlimit="10" stroke-linecap="round" stroke-linejoin="round"/>
<path d="M-0.0707397 88.9301L14.0028 75.05" stroke="white" stroke-width="2" stroke-miterlimit="10" stroke-linecap="round" stroke-linejoin="round"/>
<path d="M37.2701 15.6237L50.9194 2.16211" stroke="white" stroke-width="2" stroke-miterlimit="10" stroke-linecap="round" stroke-linejoin="round"/>
<path d="M50.8486 15.6237L37.1994 2.16211" stroke="white" stroke-width="2" stroke-miterlimit="10" stroke-linecap="round" stroke-linejoin="round"/>
<path d="M50.778 29.9223L37.1287 16.4607" stroke="white" stroke-width="2" stroke-miterlimit="10" stroke-linecap="round" stroke-linejoin="round"/>
<path d="M50.778 44.4999L37.1287 31.0383" stroke="white" stroke-width="2" stroke-miterlimit="10" stroke-linecap="round" stroke-linejoin="round"/>
<path d="M50.9193 59.0775L36.4922 44.8486" stroke="white" stroke-width="2" stroke-miterlimit="10" stroke-linecap="round" stroke-linejoin="round"/>
<path d="M50.7779 74.213L36.3508 59.9841" stroke="white" stroke-width="2" stroke-miterlimit="10" stroke-linecap="round" stroke-linejoin="round"/>
<path d="M50.9194 88.9301L36.5629 74.771" stroke="white" stroke-width="2" stroke-miterlimit="10" stroke-linecap="round" stroke-linejoin="round"/>
<path d="M37.1994 30.1314L50.9193 16.6001" stroke="white" stroke-width="2" stroke-miterlimit="10" stroke-linecap="round" stroke-linejoin="round"/>
<path d="M37.3408 44.4998L50.9193 31.1079" stroke="white" stroke-width="2" stroke-miterlimit="10" stroke-linecap="round" stroke-linejoin="round"/>
<path d="M37.058 59.0776L50.9194 45.4067" stroke="white" stroke-width="2" stroke-miterlimit="10" stroke-linecap="round" stroke-linejoin="round"/>
<path d="M37.3408 74.213L50.9193 60.8909" stroke="white" stroke-width="2" stroke-miterlimit="10" stroke-linecap="round" stroke-linejoin="round"/>
<path d="M38.0481 88.93L50.9194 76.3054" stroke="white" stroke-width="2" stroke-miterlimit="10" stroke-linecap="round" stroke-linejoin="round"/>
<path d="M31.4003 -1.67407H18.4583V90.6041H31.4003V-1.67407Z" stroke="white" stroke-width="2" stroke-miterlimit="10"/>
<path d="M31.4003 0.279053C31.4003 0.279053 30.4102 8.85821 23.9745 10.8112C17.5389 12.7642 17.1146 21.2038 17.1146 21.2038" stroke="white" stroke-width="2" stroke-miterlimit="10" stroke-linecap="round" stroke-linejoin="round"/>
<path d="M18.3876 44.0815C18.3876 44.0815 18.8119 35.5721 25.2475 33.6889C31.6832 31.7359 32.6733 23.1567 32.6733 23.1567" stroke="white" stroke-width="2" stroke-miterlimit="10" stroke-linecap="round" stroke-linejoin="round"/>
<path d="M18.3876 89.8369C18.3876 89.8369 18.8119 81.3275 25.2475 79.4442C31.6832 77.4913 32.6733 68.9121 32.6733 68.9121" stroke="white" stroke-width="2" stroke-miterlimit="10" stroke-linecap="round" stroke-linejoin="round"/>
<path d="M31.4003 46.0344C31.4003 46.0344 30.4102 54.6136 23.9745 56.5666C17.5389 58.5195 17.1146 66.9592 17.1146 66.9592" stroke="white" stroke-width="2" stroke-miterlimit="10" stroke-linecap="round" stroke-linejoin="round"/>
<path d="M13.4371 -1.67407H-0.707214V90.6041H13.4371V-1.67407Z" stroke="white" stroke-width="2" stroke-miterlimit="10" stroke-linecap="round" stroke-linejoin="round"/>
</g>
<defs>
<linearGradient id="paint0_linear_375_300" x1="24.9095" y1="0.426098" x2="24.9095" y2="89.0166" gradientUnits="userSpaceOnUse">
<stop stop-color="#009378"/>
<stop offset="1" stop-color="#4EB066"/>
</linearGradient>
<clipPath id="clip0_375_300">
<rect width="50" height="89" fill="white"/>
</clipPath>
</defs>
</svg>
