<svg width="158" height="47" viewBox="0 0 158 47" fill="none" xmlns="http://www.w3.org/2000/svg">
<g clip-path="url(#clip0_375_346)">
<path d="M39.0353 43.6083L39.0353 3.39175C39.0353 1.57474 40.5223 -3.40716e-06 42.5051 -3.32049e-06L114.999 -1.5167e-07C116.982 -6.50015e-08 118.469 1.57474 118.469 3.39175L118.469 43.6083C118.469 45.5464 116.858 47 114.999 47L42.5051 47C40.5223 47 39.0353 45.5464 39.0353 43.6083Z" fill="url(#paint0_linear_375_346)"/>
<path d="M63.5718 23.4999C63.5718 23.3788 63.5718 23.2577 63.5718 23.1365L65.9263 15.7474C66.0502 15.2628 66.5459 14.8994 67.1655 14.8994C67.7851 14.8994 68.1569 15.2628 68.2808 15.8685L70.7592 27.134L73.1137 15.8685C73.2376 15.2628 73.7333 14.8994 74.3529 14.8994C74.9725 14.8994 75.4682 15.384 75.5922 15.9896L77.0792 26.4072L79.5576 15.8685C79.6816 15.2628 80.1772 14.8994 80.7969 14.8994C81.4165 14.8994 81.9122 15.384 81.9122 15.9896L83.5231 27.3762L87.3647 15.7474C87.4886 15.1417 88.1082 14.7783 88.7278 14.8994C89.3474 15.0206 89.8431 15.5051 89.8431 16.1108L89.8431 28.3453L92.9412 22.8943C93.189 22.5309 93.5608 22.2886 94.0565 22.2886L118.965 22.2886C119.708 22.2886 120.204 22.7731 120.204 23.4999C120.204 24.2267 119.708 24.7113 118.965 24.7113L94.8 24.7113L89.7192 33.4329C89.4714 33.9175 88.8518 34.1597 88.3561 34.0386C87.8604 33.9175 87.4886 33.4329 87.4886 32.8273L87.4886 24.2267L84.6384 33.3118C84.5145 33.7963 83.8949 34.1597 83.3992 34.1597C82.7796 34.1597 82.4078 33.6752 82.2839 33.0695L80.7969 22.7731L78.3184 33.1907C78.1945 33.7963 77.6988 34.1597 77.0792 34.1597C76.4596 34.1597 75.9639 33.6752 75.9639 33.0695L74.229 23.0154L72.1223 33.0695C71.9984 33.6752 71.5027 34.0386 70.8831 34.0386C70.2635 34.0386 69.7678 33.6752 69.6439 33.0695L66.9176 20.835L66.0502 23.7422C65.8024 24.3479 65.1827 24.7113 64.5631 24.5901C63.9435 24.5901 63.5718 24.1056 63.5718 23.4999Z" fill="white"/>
<path d="M19.4557 1.21134C19.4557 0.484535 19.9514 -7.80017e-07 20.6949 -7.47516e-07L36.5569 -5.41678e-08C37.3004 -2.16671e-08 37.7961 0.484536 37.7961 1.21134C37.7961 1.93814 37.3004 2.42268 36.5569 2.42268L20.6949 2.42268C20.0753 2.42268 19.4557 1.93814 19.4557 1.21134Z" fill="url(#paint1_linear_375_346)"/>
<path d="M3.04646e-05 1.21134C3.04964e-05 0.484535 0.495716 -7.5835e-07 1.23925 -7.25849e-07L16.6055 -5.41679e-08C17.3491 -2.16671e-08 17.8447 0.484536 17.8447 1.21134C17.8447 1.93814 17.3491 2.42268 16.6055 2.42268L1.23925 2.42268C0.495716 2.42268 3.04329e-05 1.93814 3.04646e-05 1.21134Z" fill="url(#paint2_linear_375_346)"/>
<path d="M-7.04227e-07 20.4717L-5.29494e-08 5.57218C-2.11797e-08 4.84538 0.495685 4.36084 1.23921 4.36084C1.98274 4.36084 2.47842 4.84538 2.47842 5.57218L2.47842 20.5928C2.47842 21.3196 1.98274 21.8041 1.23921 21.8041C0.495684 21.8041 -7.35996e-07 21.1985 -7.04227e-07 20.4717Z" fill="url(#paint3_linear_375_346)"/>
<path d="M-7.09522e-07 41.1856L-5.29494e-08 26.165C-2.11797e-08 25.4381 0.495685 24.9536 1.23921 24.9536C1.98274 24.9536 2.47842 25.4381 2.47842 26.165L2.47842 41.1856C2.47842 41.9124 1.98274 42.3969 1.23921 42.3969C0.495684 42.3969 -7.35996e-07 41.7912 -7.09522e-07 41.1856Z" fill="url(#paint4_linear_375_346)"/>
<path d="M19.4557 45.6676C19.4557 44.9408 19.9514 44.4563 20.6949 44.4563L36.5569 44.4563C37.3004 44.4563 37.7961 44.9408 37.7961 45.6676C37.7961 46.3944 37.3004 46.879 36.5569 46.879L20.6949 46.879C20.0753 46.879 19.4557 46.2733 19.4557 45.6676Z" fill="url(#paint5_linear_375_346)"/>
<path d="M-5.29494e-08 45.6676C-2.11798e-08 44.9408 0.495687 44.4563 1.23922 44.4563L16.4816 44.4563C17.2251 44.4563 17.7208 44.9408 17.7208 45.6676C17.7208 46.3944 17.2251 46.879 16.4816 46.879L1.23922 46.879C0.619608 46.879 -7.94242e-08 46.2733 -5.29494e-08 45.6676Z" fill="url(#paint6_linear_375_346)"/>
<path d="M7.55919 23.4999C7.55919 23.1365 7.68311 22.7731 7.93096 22.652L18.2164 13.6881C18.7121 13.2036 19.4557 13.3247 19.9514 13.8092C20.447 14.2938 20.3231 15.0206 19.8274 15.5051L12.0204 22.2886L34.822 22.2886C35.5655 22.2886 36.0612 22.7731 36.0612 23.4999C36.0612 24.2268 35.5655 24.7113 34.822 24.7113L8.7984 24.7113C8.30272 24.7113 7.80703 24.3479 7.68311 23.9845C7.68311 23.8633 7.55919 23.6211 7.55919 23.4999Z" fill="url(#paint7_linear_375_346)"/>
<path d="M7.55923 23.5001C7.55923 23.2578 7.68316 22.8944 7.931 22.6521C8.42669 22.1676 9.17022 22.1676 9.66591 22.531L19.9514 31.6161C20.4471 32.1006 20.4471 32.8274 20.0753 33.3119C19.5796 33.7965 18.8361 33.7965 18.3404 33.4331L8.05492 24.348C7.80708 24.2269 7.55923 23.8635 7.55923 23.5001Z" fill="url(#paint8_linear_375_346)"/>
<path d="M120.204 45.7887C120.204 45.0619 120.7 44.5774 121.443 44.5774L137.305 44.5774C138.049 44.5774 138.544 45.0619 138.544 45.7887C138.544 46.5155 138.049 47.0001 137.305 47.0001L121.443 47.0001C120.7 47.0001 120.204 46.3944 120.204 45.7887Z" fill="url(#paint9_linear_375_346)"/>
<path d="M140.279 45.7887C140.279 45.0619 140.775 44.5774 141.518 44.5774L156.761 44.5774C157.504 44.5774 158 45.0619 158 45.7887C158 46.5155 157.504 47.0001 156.761 47.0001L141.395 47.0001C140.775 47.0001 140.279 46.3944 140.279 45.7887Z" fill="url(#paint10_linear_375_346)"/>
<path d="M155.522 41.4278L155.522 26.4071C155.522 25.6803 156.017 25.1958 156.761 25.1958C157.504 25.1958 158 25.6803 158 26.4071L158 41.4278C158 42.1546 157.504 42.6391 156.761 42.6391C156.017 42.6391 155.522 42.0334 155.522 41.4278Z" fill="url(#paint11_linear_375_346)"/>
<path d="M155.522 20.7139L155.522 5.81437C155.522 5.08756 156.017 4.60303 156.761 4.60303C157.504 4.60303 158 5.08756 158 5.81437L158 20.835C158 21.5618 157.504 22.0463 156.761 22.0463C156.017 22.0463 155.522 21.4407 155.522 20.7139Z" fill="url(#paint12_linear_375_346)"/>
<path d="M120.204 1.33243C120.204 0.605629 120.7 0.121093 121.443 0.121093L137.305 0.121094C138.049 0.121094 138.544 0.60563 138.544 1.33243C138.544 2.05924 138.049 2.54377 137.305 2.54377L121.443 2.54377C120.7 2.54377 120.204 1.9381 120.204 1.33243Z" fill="url(#paint13_linear_375_346)"/>
<path d="M140.279 1.33243C140.279 0.605629 140.775 0.121093 141.518 0.121093L156.761 0.121094C157.504 0.121094 158 0.60563 158 1.33243C158 2.05924 157.504 2.54377 156.761 2.54377L141.518 2.54377C140.775 2.54377 140.279 1.9381 140.279 1.33243Z" fill="url(#paint14_linear_375_346)"/>
<path d="M121.939 23.3788C121.939 22.652 122.435 22.1675 123.178 22.1675L149.202 22.1675C149.697 22.1675 150.193 22.5309 150.317 22.8943C150.441 23.3788 150.317 23.8634 149.945 24.2268L139.66 33.1907C139.164 33.6752 138.42 33.5541 137.925 33.0695C137.429 32.585 137.553 31.8582 138.049 31.3737L145.856 24.5902L123.054 24.5902C122.435 24.5902 121.939 24.1056 121.939 23.3788Z" fill="url(#paint15_linear_375_346)"/>
<path d="M137.677 14.4149C137.677 14.1726 137.801 13.8092 138.049 13.5669C138.544 13.0824 139.288 13.0824 139.784 13.4458L150.069 22.5309C150.441 23.0154 150.565 23.7422 150.069 24.2267C149.573 24.7113 148.83 24.7113 148.334 24.3479L138.049 15.2628C137.801 15.0205 137.677 14.6571 137.677 14.4149Z" fill="url(#paint16_linear_375_346)"/>
</g>
<defs>
<linearGradient id="paint0_linear_375_346" x1="117.958" y1="23.5262" x2="38.8908" y2="23.5262" gradientUnits="userSpaceOnUse">
<stop stop-color="#009378"/>
<stop offset="1" stop-color="#4EB066"/>
</linearGradient>
<linearGradient id="paint1_linear_375_346" x1="37.8045" y1="1.21134" x2="19.4946" y2="1.21134" gradientUnits="userSpaceOnUse">
<stop stop-color="#009378"/>
<stop offset="1" stop-color="#4EB066"/>
</linearGradient>
<linearGradient id="paint2_linear_375_346" x1="17.7569" y1="1.21134" x2="-0.0362785" y2="1.21134" gradientUnits="userSpaceOnUse">
<stop stop-color="#009378"/>
<stop offset="1" stop-color="#4EB066"/>
</linearGradient>
<linearGradient id="paint3_linear_375_346" x1="1.25854" y1="21.7336" x2="1.25854" y2="4.34134" gradientUnits="userSpaceOnUse">
<stop stop-color="#009378"/>
<stop offset="1" stop-color="#4EB066"/>
</linearGradient>
<linearGradient id="paint4_linear_375_346" x1="1.25854" y1="42.3939" x2="1.25854" y2="25.0016" gradientUnits="userSpaceOnUse">
<stop stop-color="#009378"/>
<stop offset="1" stop-color="#4EB066"/>
</linearGradient>
<linearGradient id="paint5_linear_375_346" x1="37.8045" y1="45.6483" x2="19.4946" y2="45.6483" gradientUnits="userSpaceOnUse">
<stop stop-color="#009378"/>
<stop offset="1" stop-color="#4EB066"/>
</linearGradient>
<linearGradient id="paint6_linear_375_346" x1="17.7569" y1="45.6483" x2="0.0193314" y2="45.6483" gradientUnits="userSpaceOnUse">
<stop stop-color="#009378"/>
<stop offset="1" stop-color="#4EB066"/>
</linearGradient>
<linearGradient id="paint7_linear_375_346" x1="36.097" y1="19.0597" x2="7.6204" y2="19.0597" gradientUnits="userSpaceOnUse">
<stop stop-color="#009378"/>
<stop offset="1" stop-color="#4EB066"/>
</linearGradient>
<linearGradient id="paint8_linear_375_346" x1="20.3491" y1="28.0581" x2="7.62045" y2="28.0581" gradientUnits="userSpaceOnUse">
<stop stop-color="#009378"/>
<stop offset="1" stop-color="#4EB066"/>
</linearGradient>
<linearGradient id="paint9_linear_375_346" x1="120.206" y1="45.744" x2="138.516" y2="45.744" gradientUnits="userSpaceOnUse">
<stop stop-color="#009378"/>
<stop offset="1" stop-color="#4EB066"/>
</linearGradient>
<linearGradient id="paint10_linear_375_346" x1="140.255" y1="45.744" x2="158.047" y2="45.744" gradientUnits="userSpaceOnUse">
<stop stop-color="#009378"/>
<stop offset="1" stop-color="#4EB066"/>
</linearGradient>
<linearGradient id="paint11_linear_375_346" x1="156.752" y1="25.2221" x2="156.752" y2="42.6144" gradientUnits="userSpaceOnUse">
<stop stop-color="#009378"/>
<stop offset="1" stop-color="#4EB066"/>
</linearGradient>
<linearGradient id="paint12_linear_375_346" x1="156.752" y1="4.56124" x2="156.752" y2="21.9537" gradientUnits="userSpaceOnUse">
<stop stop-color="#009378"/>
<stop offset="1" stop-color="#4EB066"/>
</linearGradient>
<linearGradient id="paint13_linear_375_346" x1="120.206" y1="1.30712" x2="138.516" y2="1.30712" gradientUnits="userSpaceOnUse">
<stop stop-color="#009378"/>
<stop offset="1" stop-color="#4EB066"/>
</linearGradient>
<linearGradient id="paint14_linear_375_346" x1="140.255" y1="1.30712" x2="157.992" y2="1.30712" gradientUnits="userSpaceOnUse">
<stop stop-color="#009378"/>
<stop offset="1" stop-color="#4EB066"/>
</linearGradient>
<linearGradient id="paint15_linear_375_346" x1="121.914" y1="27.8963" x2="150.39" y2="27.8963" gradientUnits="userSpaceOnUse">
<stop stop-color="#009378"/>
<stop offset="1" stop-color="#4EB066"/>
</linearGradient>
<linearGradient id="paint16_linear_375_346" x1="137.661" y1="18.8974" x2="150.39" y2="18.8974" gradientUnits="userSpaceOnUse">
<stop stop-color="#009378"/>
<stop offset="1" stop-color="#4EB066"/>
</linearGradient>
<clipPath id="clip0_375_346">
<rect width="47" height="158" fill="white" transform="translate(158) rotate(90)"/>
</clipPath>
</defs>
</svg>
