<svg width="37" height="84" viewBox="0 0 37 84" fill="none" xmlns="http://www.w3.org/2000/svg">
<path d="M1.84014 0H35.0941C36.1456 0 36.9343 0.85446 36.9343 1.84038V82.1596C36.9343 83.2113 36.0799 84 35.0941 84H1.84014C0.788632 84 0 83.1455 0 82.1596V1.84038C0 0.85446 0.854352 0 1.84014 0Z" fill="url(#paint0_linear_375_367)"/>
<path d="M9.20069 60.0752C10.7614 60.0752 12.0266 58.8098 12.0266 57.2489C12.0266 55.688 10.7614 54.4226 9.20069 54.4226C7.63997 54.4226 6.37476 55.688 6.37476 57.2489C6.37476 58.8098 7.63997 60.0752 9.20069 60.0752Z" fill="white"/>
<path d="M8.93781 39.3052C10.4985 39.3052 11.7637 38.0398 11.7637 36.4789C11.7637 34.918 10.4985 33.6526 8.93781 33.6526C7.37709 33.6526 6.11188 34.918 6.11188 36.4789C6.11188 38.0398 7.37709 39.3052 8.93781 39.3052Z" fill="white"/>
<path d="M8.67493 17.8779C10.2357 17.8779 11.5009 16.6125 11.5009 15.0516C11.5009 13.4907 10.2357 12.2253 8.67493 12.2253C7.11421 12.2253 5.849 13.4907 5.849 15.0516C5.849 16.6125 7.11421 17.8779 8.67493 17.8779Z" fill="white"/>
<path d="M27.3392 71.1174C28.9 71.1174 30.1652 69.8521 30.1652 68.2911C30.1652 66.7302 28.9 65.4648 27.3392 65.4648C25.7785 65.4648 24.5133 66.7302 24.5133 68.2911C24.5133 69.8521 25.7785 71.1174 27.3392 71.1174Z" fill="white"/>
<path d="M27.0106 50.3474C28.5713 50.3474 29.8366 49.082 29.8366 47.5211C29.8366 45.9602 28.5713 44.6948 27.0106 44.6948C25.4499 44.6948 24.1847 45.9602 24.1847 47.5211C24.1847 49.082 25.4499 50.3474 27.0106 50.3474Z" fill="white"/>
<path d="M26.7477 28.8545C28.3085 28.8545 29.5737 27.5891 29.5737 26.0282C29.5737 24.4673 28.3085 23.2019 26.7477 23.2019C25.187 23.2019 23.9218 24.4673 23.9218 26.0282C23.9218 27.5891 25.187 28.8545 26.7477 28.8545Z" fill="white"/>
<defs>
<linearGradient id="paint0_linear_375_367" x1="18.4987" y1="0" x2="18.4987" y2="84.0272" gradientUnits="userSpaceOnUse">
<stop stop-color="#009378"/>
<stop offset="1" stop-color="#4EB066"/>
</linearGradient>
</defs>
</svg>
