<svg width="108" height="61" viewBox="0 0 108 61" fill="none" xmlns="http://www.w3.org/2000/svg">
<g clip-path="url(#clip0_375_377)">
<path d="M90.0141 16.6051V2.40903C90.0141 1.03244 88.9112 0 87.6386 0H20.4462C19.0888 0 18.0707 1.11848 18.0707 2.40903V16.519H0V43.6206H18.0707V58.5049C18.0707 59.8815 19.1736 60.914 20.4462 60.914H87.5538C88.9112 60.914 89.9293 59.7955 89.9293 58.5049V43.7066H108V16.6051H90.0141ZM18.0707 36.5656H9.92616V24.4344H18.0707V36.5656ZM98.0738 36.5656H89.9293V24.4344H98.0738V36.5656Z" fill="url(#paint0_linear_375_377)"/>
<path d="M42.9285 -6.53882H41.2317V64.9577H42.9285V-6.53882Z" fill="white"/>
<path d="M66.7683 -7.31323H65.0715V64.1832H66.7683V-7.31323Z" fill="white"/>
<path d="M65.9198 50.2454H42.0801V51.9661H65.9198V50.2454Z" fill="white"/>
<path d="M47.5946 51.1057H45.8978V61.9463H47.5946V51.1057Z" fill="white"/>
<path d="M62.3567 51.1057H60.6599V61.9463H62.3567V51.1057Z" fill="white"/>
<path d="M18.0707 61.7744C17.8162 61.7744 17.6465 61.6884 17.4768 61.5163C17.1375 61.1722 17.1375 60.656 17.4768 60.3118L41.4862 35.9634C41.8256 35.6193 42.3346 35.6193 42.674 35.9634C43.0133 36.3076 43.0133 36.8238 42.674 37.1679L18.6646 61.5163C18.4949 61.6884 18.2404 61.7744 18.0707 61.7744Z" fill="white"/>
<path d="M32.9175 63.2371C32.663 63.2371 32.4933 63.151 32.3236 62.9789C31.9843 62.6348 31.9843 62.1186 32.3236 61.7744L41.4862 52.4825C41.8256 52.1383 42.3346 52.1383 42.674 52.4825C43.0133 52.8266 43.0133 53.3428 42.674 53.687L33.5114 62.9789C33.3417 63.151 33.0872 63.2371 32.9175 63.2371Z" fill="white"/>
<path d="M15.6104 46.6318C15.3558 46.6318 15.1862 46.5458 15.0165 46.3737C14.6771 46.0295 14.6771 45.5133 15.0165 45.1692L41.4862 18.3257C41.8256 17.9816 42.3346 17.9816 42.674 18.3257C43.0133 18.6699 43.0133 19.1861 42.674 19.5303L16.2042 46.3737C16.0345 46.5458 15.78 46.6318 15.6104 46.6318Z" fill="white"/>
<path d="M-1.01807 44.3949C-1.27258 44.3949 -1.44226 44.3089 -1.61194 44.1368C-1.95129 43.7926 -1.95129 43.2764 -1.61194 42.9323L41.4863 -0.774361C41.8256 -1.11851 42.3346 -1.11851 42.674 -0.774361C43.0134 -0.430214 43.0134 0.086006 42.674 0.430153L-0.424193 44.1368C-0.593871 44.3089 -0.848388 44.3949 -1.01807 44.3949Z" fill="white"/>
<path d="M-0.763549 25.2087C-1.01807 25.2087 -1.18774 25.1227 -1.35742 24.9506C-1.69678 24.6065 -1.69678 24.0903 -1.35742 23.7461L23.5852 -1.63471C23.9246 -1.97886 24.4336 -1.97886 24.773 -1.63471C25.1123 -1.29057 25.1123 -0.774346 24.773 -0.430199L-0.169676 24.9506C-0.339354 25.1227 -0.593871 25.2087 -0.763549 25.2087Z" fill="white"/>
<path d="M83.3119 63.4952C83.0574 63.4952 82.8877 63.4091 82.718 63.2371C82.3787 62.8929 82.3787 62.3767 82.718 62.0325L108.424 35.9634C108.764 35.6193 109.273 35.6193 109.612 35.9634C109.951 36.3076 109.951 36.8238 109.612 37.1679L83.9058 63.2371C83.7361 63.4091 83.5664 63.4952 83.3119 63.4952Z" fill="white"/>
<path d="M65.9199 8.17358C65.6654 8.17358 65.4957 8.08755 65.3261 7.91547C64.9867 7.57133 64.9867 7.05511 65.3261 6.71096L74.5735 -2.581C74.9129 -2.92515 75.4219 -2.92515 75.7612 -2.581C76.1006 -2.23685 76.1006 -1.72063 75.7612 -1.37649L66.5138 8.00151C66.3441 8.08755 66.1744 8.17358 65.9199 8.17358Z" fill="white"/>
<path d="M66.5986 62.8068C66.3441 62.8068 66.1744 62.7208 66.0048 62.5487C65.6654 62.2045 65.6654 61.6883 66.0048 61.3442L108.509 18.2398C108.848 17.8957 109.357 17.8957 109.697 18.2398C110.036 18.5839 110.036 19.1002 109.697 19.4443L67.1925 62.5487C67.0228 62.7208 66.7683 62.8068 66.5986 62.8068Z" fill="white"/>
<path d="M65.9199 44.3949C65.6654 44.3949 65.4957 44.3089 65.3261 44.1368C64.9867 43.7926 64.9867 43.2764 65.3261 42.9323L108.424 -0.774361C108.764 -1.11851 109.273 -1.11851 109.612 -0.774361C109.951 -0.430214 109.951 0.086006 109.612 0.430153L66.5138 44.1368C66.3441 44.3089 66.1744 44.3949 65.9199 44.3949Z" fill="white"/>
<path d="M66.1744 25.2087C65.9199 25.2087 65.7502 25.1227 65.5806 24.9506C65.2412 24.6065 65.2412 24.0903 65.5806 23.7461L90.6081 -1.63471C90.9474 -1.97886 91.4564 -1.97886 91.7958 -1.63471C92.1351 -1.29057 92.1351 -0.774346 91.7958 -0.430199L66.7683 24.9506C66.5986 25.1227 66.3441 25.2087 66.1744 25.2087Z" fill="white"/>
</g>
<defs>
<linearGradient id="paint0_linear_375_377" x1="54.0224" y1="0.5299" x2="54.0224" y2="61.0426" gradientUnits="userSpaceOnUse">
<stop stop-color="#009378"/>
<stop offset="1" stop-color="#4EB066"/>
</linearGradient>
<clipPath id="clip0_375_377">
<rect width="108" height="61" fill="white"/>
</clipPath>
</defs>
</svg>
