<svg width="128" height="71" viewBox="0 0 128 71" fill="none" xmlns="http://www.w3.org/2000/svg">
<g clip-path="url(#clip0_375_893)">
<path d="M118.2 26.5C118.4 26.8 118.6 26.9 118.9 26.9C119 26.9 119.2 26.9 119.3 26.8L127.2 22.2C127.4 22.1 127.6 22 127.7 21.8L127.8 21.7V21.6C127.8 21.5 127.8 21.5 127.9 21.4C127.9 21.3 127.9 21.3 127.9 21.2C127.9 21.1 127.9 21.1 127.9 21C127.9 20.9 127.9 20.9 127.8 20.8C127.7 20.4 127.3 20.1 126.9 20.1L119.2 15.5C118.8 15.3 118.3 15.4 118.1 15.8C117.9 16.2 118 16.7 118.4 16.9L123.7 20.1H106.6C106.5 20.1 106.5 20.1 106.4 20.1V2.8C106.4 1.2 105.1 0 103.6 0H24.4999C22.8999 0 21.6999 1.3 21.6999 2.8V34.9C21.5999 34.9 21.4999 34.9 21.4999 34.9H0.999935C0.599935 34.9 0.199935 35.2 -6.4835e-05 35.6C-0.100065 36 -6.48201e-05 36.5 0.399935 36.7L18.0999 49.5H4.09994L9.49994 46.4C9.89993 46.2 9.99994 45.7 9.79994 45.3C9.59994 44.9 9.09993 44.8 8.69993 45L0.799935 49.6C0.599935 49.7 0.399935 49.8 0.299935 50L0.199935 50.1V50.2C0.199935 50.3 0.199935 50.3 0.0999352 50.4C0.0999352 50.5 0.0999352 50.5 0.0999352 50.6C0.0999352 50.7 0.0999352 50.7 0.0999352 50.8C0.0999352 50.9 0.0999352 50.9 0.199935 51C0.299935 51.4 0.699935 51.7 1.09994 51.7L8.69993 56C8.79994 56.1 8.99994 56.1 9.09994 56.1C9.39994 56.1 9.59994 56 9.79994 55.7C9.99994 55.3 9.89993 54.8 9.49994 54.6L4.19993 51.4H21.2999C21.4999 51.4 21.5999 51.4 21.6999 51.3V68C21.6999 69.6 22.9999 70.8 24.4999 70.8H103.6C105.2 70.8 106.4 69.5 106.4 68V36.8H126.8C127.2 36.8 127.6 36.5 127.8 36.1C127.9 35.7 127.8 35.2 127.4 35L109.7 22.2H123.8L118.4 25.3C118.1 25.6 117.9 26.1 118.2 26.5ZM4.09994 36.9H21.3999C21.4999 36.9 21.5999 36.9 21.5999 36.9V49.6L4.09994 36.9ZM123.8 34.8H106.5V22.3L123.8 34.8Z" fill="url(#paint0_linear_375_893)"/>
<path d="M22.8994 72.7C22.5994 72.7 22.3994 72.6 22.1994 72.4C21.7994 72 21.7994 71.4 22.1994 71L94.5994 -1.39995C94.9994 -1.79995 95.5994 -1.79995 95.9994 -1.39995C96.3994 -0.999951 96.3994 -0.399951 95.9994 4.87566e-05L23.5994 72.4C23.3994 72.6 23.1994 72.7 22.8994 72.7Z" fill="white"/>
<path d="M43 74.2C42.7 74.2 42.5 74.1 42.3 73.9C41.9 73.5 41.9 72.9 42.3 72.5L107.8 6.99995C108.2 6.59995 108.8 6.59995 109.2 6.99995C109.6 7.39995 109.6 7.99995 109.2 8.39995L43.7 73.9C43.5 74.1 43.2 74.2 43 74.2Z" fill="white"/>
<path d="M63.6992 74.4001C63.3992 74.4001 63.1992 74.3001 62.9992 74.1001C62.5992 73.7001 62.5992 73.1001 62.9992 72.7001L108.999 26.7001C109.399 26.3001 109.999 26.3001 110.399 26.7001C110.799 27.1001 110.799 27.7001 110.399 28.1001L64.3992 74.1001C64.1992 74.3001 63.9992 74.4001 63.6992 74.4001Z" fill="white"/>
<path d="M84.8994 75.5C84.5994 75.5 84.3994 75.4 84.1994 75.2C83.7994 74.8 83.7994 74.2001 84.1994 73.8001L108.899 49.1C109.299 48.7 109.899 48.7 110.299 49.1C110.699 49.5 110.699 50.1001 110.299 50.5001L85.5994 75.2C85.3994 75.4 85.1994 75.5 84.8994 75.5Z" fill="white"/>
<path d="M20.3994 54.6001C20.0994 54.6001 19.8994 54.5001 19.6994 54.3001C19.2994 53.9001 19.2994 53.3001 19.6994 52.9001L72.8994 -0.299854C73.2994 -0.699854 73.8994 -0.699854 74.2994 -0.299854C74.6994 0.100147 74.6994 0.700147 74.2994 1.10015L21.1994 54.3001C20.9994 54.5001 20.6994 54.6001 20.3994 54.6001Z" fill="white"/>
<path d="M20.2998 32.7C19.9998 32.7 19.7998 32.6 19.5998 32.4C19.1998 32 19.1998 31.4 19.5998 31L51.1998 -0.7C51.5998 -1.1 52.1998 -1.1 52.5998 -0.7C52.9998 -0.3 52.9998 0.3 52.5998 0.7L20.9998 32.4C20.7998 32.6 20.4998 32.7 20.2998 32.7Z" fill="white"/>
<path d="M18.5996 12.2C18.2996 12.2 18.0996 12.1 17.8996 11.9C17.4996 11.5 17.4996 10.9 17.8996 10.5L28.8996 -0.399951C29.2996 -0.799951 29.8996 -0.799951 30.2996 -0.399951C30.6996 4.88758e-05 30.6996 0.600049 30.2996 1.00005L19.2996 11.9C19.0996 12.1 18.8996 12.2 18.5996 12.2Z" fill="white"/>
<path d="M76.1006 74.8999C75.8006 74.8999 75.6006 74.7999 75.4006 74.5999L17.9006 17.0999C17.5006 16.6999 17.5006 16.0999 17.9006 15.6999C18.3006 15.2999 18.9006 15.2999 19.3006 15.6999L76.8006 73.1999C77.2006 73.5999 77.2006 74.1999 76.8006 74.5999C76.6006 74.7999 76.4006 74.8999 76.1006 74.8999Z" fill="white"/>
<path d="M55.6008 73.4C55.3008 73.4 55.1008 73.2999 54.9008 73.0999L20.6008 38.9C20.2008 38.5 20.2008 37.9 20.6008 37.5C21.0008 37.1 21.6008 37.1 22.0008 37.5L56.3008 71.8C56.7008 72.2 56.7008 72.7999 56.3008 73.1999C56.1008 73.2999 55.8008 73.4 55.6008 73.4Z" fill="white"/>
<path d="M36.1004 74.1C35.8004 74.1 35.6004 74 35.4004 73.8L17.2004 55.7C16.8004 55.3 16.8004 54.7 17.2004 54.3C17.6004 53.9 18.2004 53.9 18.6004 54.3L36.7004 72.4C37.1004 72.8 37.1004 73.4 36.7004 73.8C36.6004 74 36.3004 74.1 36.1004 74.1Z" fill="white"/>
<path d="M96.6002 74.9C96.3002 74.9 96.1002 74.8 95.9002 74.6L22.5002 1.2C22.1002 0.8 22.1002 0.2 22.5002 -0.2C22.9002 -0.6 23.5002 -0.6 23.9002 -0.2L97.4002 73.3C97.8002 73.7 97.8002 74.3 97.4002 74.7C97.1002 74.8 96.9002 74.9 96.6002 74.9Z" fill="white"/>
<path d="M108.9 65C108.6 65 108.4 64.9 108.2 64.7L44.2004 0.7C43.8004 0.3 43.8004 -0.3 44.2004 -0.7C44.6004 -1.1 45.2004 -1.1 45.6004 -0.7L109.6 63.3C110 63.7 110 64.3 109.6 64.7C109.4 64.9 109.1 65 108.9 65Z" fill="white"/>
<path d="M108 42.1C107.7 42.1 107.5 42 107.3 41.8L66.5002 1.00005C66.1002 0.600049 66.1002 4.88758e-05 66.5002 -0.399951C66.9002 -0.799951 67.5002 -0.799951 67.9002 -0.399951L108.7 40.4001C109.1 40.8001 109.1 41.4 108.7 41.8C108.5 42 108.3 42.1 108 42.1Z" fill="white"/>
<path d="M106.7 19.9C106.4 19.9 106.2 19.8 106 19.6L83.8 -2.60005C83.4 -3.00005 83.4 -3.60005 83.8 -4.00005C84.2 -4.40005 84.8 -4.40005 85.2 -4.00005L107.4 18.2C107.8 18.6 107.8 19.2 107.4 19.6C107.2 19.8 107 19.9 106.7 19.9Z" fill="white"/>
</g>
<defs>
<linearGradient id="paint0_linear_375_893" x1="63.985" y1="0.6057" x2="63.985" y2="70.9393" gradientUnits="userSpaceOnUse">
<stop stop-color="#009378"/>
<stop offset="1" stop-color="#4EB066"/>
</linearGradient>
<clipPath id="clip0_375_893">
<rect width="127.9" height="70.9" fill="white"/>
</clipPath>
</defs>
</svg>
