<svg width="93" height="73" viewBox="0 0 93 73" fill="none" xmlns="http://www.w3.org/2000/svg">
<path d="M46.7978 37.6441L28.7641 37.7917C27.7209 37.7917 26.6776 38.1607 25.8579 38.8989L13.1151 51.004C12.2954 51.816 11.8483 52.8493 11.8483 54.0303L11.6992 70.9332C11.6992 72.1142 12.5934 73 13.7858 73H90.9132C92.031 73 92.9997 72.0404 92.9997 70.9332V22.8079C92.9997 21.6269 92.1055 20.7411 90.9132 20.7411L62.4468 20.3721C61.031 20.3721 59.6151 21.1102 58.8699 22.365L49.8531 34.9868C49.1824 36.2416 48.0646 37.1274 46.7978 37.6441Z" fill="url(#paint0_linear_375_912)"/>
<path d="M87.2624 68.9404H19.1518C17.736 68.9404 16.6182 67.8332 16.6182 66.5784L16.6927 55.2114C16.6927 54.1042 17.2143 52.997 18.1085 52.2589L28.8393 43.0324C29.659 42.2943 30.7023 41.9252 31.8201 41.9252L50.5989 41.4085C51.4932 41.0395 52.3129 40.449 52.8345 39.6371L62.2239 26.6462C62.9691 25.4652 64.385 24.7271 65.8754 24.7271L87.2624 25.3914C88.6783 25.3914 89.7961 26.4985 89.7961 27.7533V66.5046C89.7961 67.907 88.6783 68.9404 87.2624 68.9404ZM31.8201 43.4015C31.0749 43.4015 30.3297 43.6229 29.8081 44.1396L19.0773 53.3661C18.5557 53.809 18.1831 54.5471 18.1831 55.2114L18.1085 66.5784C18.1085 67.0951 18.5557 67.4642 19.1518 67.4642H87.2624C87.8586 67.4642 88.3057 67.0213 88.3057 66.5784V27.8272C88.3057 27.3105 87.8586 26.9414 87.2624 26.9414L65.8754 26.2771C64.9066 26.2771 63.9379 26.7938 63.4162 27.5319L54.0268 40.449C53.3561 41.4824 52.2384 42.3681 50.9715 42.811L50.748 42.8848L31.8201 43.4015Z" fill="white"/>
<path d="M17.9592 1.25481C17.4375 0.147628 16.0217 -0.369055 14.9784 0.369064C14.9784 0.369064 14.9784 0.369064 14.9039 0.369064L0.745213 10.7027C-0.298056 11.4409 -0.223537 12.9909 0.819732 13.729L26.7524 31.6653C27.1995 32.2558 28.3173 31.9606 29.2861 31.3701C30.0313 30.7796 30.3293 29.7462 29.9567 28.8605L17.9592 1.25481Z" fill="url(#paint1_linear_375_912)"/>
<defs>
<linearGradient id="paint0_linear_375_912" x1="52.332" y1="20.5623" x2="52.332" y2="73.0329" gradientUnits="userSpaceOnUse">
<stop stop-color="#009378"/>
<stop offset="1" stop-color="#4EB066"/>
</linearGradient>
<linearGradient id="paint1_linear_375_912" x1="15.0692" y1="3.53663" x2="27.9359" y2="33.0597" gradientUnits="userSpaceOnUse">
<stop stop-color="#009378"/>
<stop offset="1" stop-color="#4EB066"/>
</linearGradient>
</defs>
</svg>
