<svg width="84" height="80" viewBox="0 0 84 80" fill="none" xmlns="http://www.w3.org/2000/svg">
<path d="M84 40.0627C84 29.6552 75.7254 20.8777 65.3194 20.3135C54.7881 19.8119 46.0119 27.4608 44.7582 37.5549H35.2299V5.32915C35.2299 2.38245 32.8478 0 29.9015 0H5.32836C2.38209 0 0 2.38245 0 5.32915V74.6708C0 77.6176 2.38209 80 5.32836 80H29.9015C32.8478 80 35.2299 77.6176 35.2299 74.6708V43.8871H44.9463C45.8866 48.7774 48.7075 53.0408 52.5313 55.8621V75.3605H56.9194V58.3699C59.1761 59.3103 61.6836 59.8119 64.3164 59.8119C66.8866 59.8119 69.394 59.3103 71.6507 58.3699V75.4232H76.0388V55.9248C80.8657 52.3511 84 46.5831 84 40.0627Z" fill="url(#paint0_linear_375_918)"/>
<defs>
<linearGradient id="paint0_linear_375_918" x1="41.998" y1="0" x2="41.998" y2="79.9965" gradientUnits="userSpaceOnUse">
<stop stop-color="#009378"/>
<stop offset="1" stop-color="#4EB066"/>
</linearGradient>
</defs>
</svg>
