<svg width="71" height="71" viewBox="0 0 71 71" fill="none" xmlns="http://www.w3.org/2000/svg">
<path d="M35.5 71C55.1061 71 71 55.1061 71 35.5C71 15.8939 55.1061 0 35.5 0C15.8939 0 0 15.8939 0 35.5C0 55.1061 15.8939 71 35.5 71Z" fill="url(#paint0_linear_375_921)"/>
<path d="M30.0001 29.6C29.7001 29.6 29.5001 29.5 29.3001 29.3C22.9001 22.7 23.6001 15.2 26.4001 10.3C28.0001 7.5 29.0001 7.7 29.3001 7.8C29.8001 7.9 30.1001 8.4 30.1001 8.9C30.1001 9.5 29.7001 9.9 29.1001 9.9C28.4001 10.7 26.7001 13.2 26.3001 16.7C25.9001 20.8 27.3001 24.6 30.6001 28C31.0001 28.4 31.0001 29 30.6001 29.4C30.5001 29.5 30.2001 29.6 30.0001 29.6Z" fill="white"/>
<path d="M23.5997 11.1C23.1997 11.1 22.7997 10.9 22.6997 10.5C22.4997 9.99998 22.6997 9.39998 23.1997 9.19998L29.1997 6.49998C29.6997 6.29998 30.2997 6.49998 30.4997 6.99998C30.6997 7.49998 30.4997 8.09998 29.9997 8.29998L23.9997 11C23.8997 11.1 23.7997 11.1 23.5997 11.1Z" fill="#FCFCFC"/>
<path d="M29 14.9999C28.4 14.8999 28 14.4999 28 13.8999L28.6 7.2999C28.7 6.7999 29.1 6.3999 29.7 6.3999C30.2 6.4999 30.7 6.8999 30.6 7.4999L30 14.0999C30 14.5999 29.6 14.9999 29 14.9999Z" fill="#FCFCFC"/>
<path d="M43.3 31.5C43.1 31.5 42.8 31.4 42.6 31.2C42.2 30.8 42.2 30.2 42.5 29.8C48.6 23 56.2 23.2 61.3 25.7C64.3 27.2 64.1 28.1 64 28.4C63.9 28.9 63.5 29.2 63 29.3C62.4 29.3 62 28.9 61.9 28.4C61.1 27.8 58.5 26.2 55 26.1C50.9 25.9 47.2 27.6 44 31.2C43.9 31.4 43.6 31.5 43.3 31.5Z" fill="white"/>
<path d="M64.3997 29.8C63.9997 29.8 63.6997 29.6 63.4997 29.3L60.3997 23.5C60.0997 23 60.2997 22.4 60.7997 22.2C61.2997 21.9 61.8997 22.1 62.0997 22.6L65.1997 28.4C65.4997 28.9 65.2997 29.5 64.7997 29.7C64.7997 29.8 64.5997 29.8 64.3997 29.8Z" fill="#FCFCFC"/>
<path d="M64.3998 29.8001L57.7998 29.6001C57.1998 29.6001 56.7998 29.1001 56.7998 28.6001C56.7998 28.0001 57.2998 27.6001 57.7998 27.6001L64.3998 27.8001C64.9998 27.8001 65.3998 28.3001 65.3998 28.8001C65.3998 29.4001 64.9998 29.8001 64.3998 29.8001Z" fill="#FCFCFC"/>
<path d="M41.9002 65.1C41.8002 65.1 41.7002 65.1 41.6002 65.1C41.1002 65 40.8002 64.6 40.8002 64C40.8002 63.4 41.2002 63 41.8002 63C42.5002 62.2001 44.1002 59.7001 44.5002 56.2001C44.9002 52.1001 43.4002 48.3001 40.0002 45.0001C39.6002 44.6001 39.6002 44 40.0002 43.6C40.4002 43.2 41.0002 43.2 41.4002 43.6C47.9002 50.1 47.3002 57.6 44.5002 62.6C43.2002 64.8 42.4002 65.1 41.9002 65.1Z" fill="white"/>
<path d="M41.2999 66.4C40.8999 66.4 40.5999 66.2 40.3999 65.8C40.1999 65.3 40.3999 64.7 40.8999 64.5L46.8999 61.8C47.3999 61.6 47.9999 61.8 48.1999 62.3C48.3999 62.8 48.1999 63.4 47.6999 63.6L41.6999 66.3C41.4999 66.4 41.3999 66.4 41.2999 66.4Z" fill="#FCFCFC"/>
<path d="M41.2998 66.4C41.1998 66.4 41.1998 66.4 41.2998 66.4C40.6998 66.4 40.2998 65.9 40.2998 65.3L40.7998 58.7C40.7998 58.2 41.2998 57.7 41.8998 57.8C42.4998 57.8 42.8998 58.3 42.7998 58.9L42.2998 65.5C42.1998 66 41.7998 66.4 41.2998 66.4Z" fill="#FCFCFC"/>
<path d="M17.9007 45.8999C14.9007 45.8999 12.2007 44.9999 10.0007 43.6999C7.20068 41.9999 7.40068 41.0999 7.50068 40.6999C7.60068 40.1999 8.10068 39.8999 8.60068 39.8999C9.10068 39.8999 9.60068 40.2999 9.60068 40.8999C10.3007 41.5999 12.8007 43.2999 16.3007 43.7999C20.4007 44.2999 24.2007 42.8999 27.6007 39.6999C28.0007 39.2999 28.6007 39.2999 29.0007 39.6999C29.4007 40.0999 29.4007 40.6999 29.0007 41.0999C25.4007 44.5999 21.5007 45.8999 17.9007 45.8999Z" fill="white"/>
<path d="M9.79988 47.3999C9.39988 47.3999 8.99988 47.1999 8.89988 46.7999L6.39988 40.6999C6.19988 40.1999 6.39988 39.5999 6.89988 39.3999C7.39988 39.1999 7.99988 39.3999 8.19988 39.8999L10.6999 45.9999C10.8999 46.4999 10.6999 47.0999 10.1999 47.2999C9.99988 47.2999 9.89988 47.3999 9.79988 47.3999Z" fill="#FCFCFC"/>
<path d="M13.8002 42H13.7002L7.1002 41.2C6.6002 41.1 6.2002 40.5999 6.2002 40.0999C6.3002 39.5999 6.8002 39.2 7.3002 39.2L13.9002 40C14.4002 40.1 14.8002 40.5999 14.8002 41.0999C14.7002 41.6999 14.3002 42 13.8002 42Z" fill="#FCFCFC"/>
<path d="M35.5002 40.7999C32.6002 40.7999 30.2002 38.4 30.2002 35.5C30.2002 32.6 32.6002 30.2 35.5002 30.2C38.4002 30.2 40.8002 32.6 40.8002 35.5C40.8002 38.4 38.4002 40.7999 35.5002 40.7999ZM35.5002 32.2999C33.7002 32.2999 32.2002 33.7999 32.2002 35.5999C32.2002 37.3999 33.7002 38.9 35.5002 38.9C37.3002 38.9 38.8002 37.3999 38.8002 35.5999C38.8002 33.7999 37.3002 32.2999 35.5002 32.2999Z" fill="white"/>
<defs>
<linearGradient id="paint0_linear_375_921" x1="35.5271" y1="0" x2="35.5271" y2="71.0543" gradientUnits="userSpaceOnUse">
<stop stop-color="#009378"/>
<stop offset="1" stop-color="#4EB066"/>
</linearGradient>
</defs>
</svg>
