<svg width="49" height="94" viewBox="0 0 49 94" fill="none" xmlns="http://www.w3.org/2000/svg">
<path d="M0 16.4279C0 16.8699 0.364583 17.3119 0.875 17.3119H4.73958C5.25 17.3119 5.61458 16.9436 5.61458 16.4279V12.2288H25.8854C27.6354 12.2288 29.0208 13.6285 29.0208 15.3229V21.8793H23.3333C19.0312 21.8793 15.6771 25.71 16.4062 29.9828L23.1146 70.058C23.1146 70.1317 23.1146 70.2053 23.1146 70.279L25.8125 85.6756V85.8966H32.6667H25.8854L26.0313 87.8119C26.0313 88.2539 25.6667 88.6223 25.1562 88.6223C24.7188 88.6223 24.2812 88.9906 24.2812 89.4326V93.116C24.2812 93.558 24.6458 93.9263 25.1562 93.9263H40.4688C40.9062 93.9263 41.3438 93.558 41.3438 93.116V89.4326C41.3438 88.9906 40.9792 88.6223 40.4688 88.6223C40.0312 88.6223 39.5938 88.2539 39.5938 87.8119L39.7396 85.9702H39.8125L42.0729 70.2053C42.0729 70.1317 42.0729 70.058 42.0729 69.9843L48.7813 29.9828C49.5104 25.7837 46.2292 22.0266 42 21.953H35.1458V9.1348C35.1458 7.44044 33.7604 6.04075 32.0104 6.04075H5.61458V0.884013C5.61458 0.368339 5.17708 0 4.73958 0H0.875C0.364583 0 0 0.368339 0 0.884013" fill="url(#paint0_linear_375_946)"/>
<defs>
<linearGradient id="paint0_linear_375_946" x1="24.5015" y1="0.214741" x2="24.5015" y2="95.1662" gradientUnits="userSpaceOnUse">
<stop stop-color="#009378"/>
<stop offset="1" stop-color="#4EB066"/>
</linearGradient>
</defs>
</svg>
