<svg width="76" height="64" viewBox="0 0 76 64" fill="none" xmlns="http://www.w3.org/2000/svg">
<path d="M70.9373 22.0056H40.2633C39.5486 21.8276 39.0721 21.1752 39.0721 20.4041V6.2873C39.0721 5.81279 39.4295 5.39759 39.906 5.39759C40.3824 5.39759 40.7994 5.04171 40.7994 4.56719V0.830399C40.7398 0.355885 40.3229 0 39.906 0H24.7179C24.2414 0 23.8245 0.355885 23.8245 0.830399V4.50788C23.8245 4.98239 24.1818 5.39759 24.6583 5.39759C25.1348 5.39759 25.5517 5.75348 25.5517 6.22799V20.4041C25.5517 21.1752 25.0157 21.8276 24.3605 22.0056H5.0627C2.26332 22.0056 0 24.2595 0 27.0473V59.0176C0 61.8054 2.26332 64.0593 5.0627 64.0593H70.9373C73.7367 64.0593 76 61.8054 76 59.0176V27.0473C76 24.2595 73.7367 22.0056 70.9373 22.0056Z" fill="url(#paint0_linear_375_950)"/>
<path d="M39.3698 6.88038H25.373C25.0156 6.88038 24.7773 6.64312 24.7773 6.28723C24.7773 5.93135 25.0156 5.69409 25.373 5.69409H39.3698C39.7272 5.69409 39.9654 5.93135 39.9654 6.28723C39.9654 6.64312 39.7272 6.88038 39.3698 6.88038Z" fill="white"/>
<defs>
<linearGradient id="paint0_linear_375_950" x1="37.9878" y1="-36.814" x2="37.9878" y2="141.614" gradientUnits="userSpaceOnUse">
<stop stop-color="#009378"/>
<stop offset="1" stop-color="#4EB066"/>
</linearGradient>
</defs>
</svg>
