<svg width="112" height="66" viewBox="0 0 112 66" fill="none" xmlns="http://www.w3.org/2000/svg">
<path d="M94.8434 15.573V63.9235C94.8434 65.1101 93.8779 66 92.7639 66H2.15379C0.965465 66 0.0742188 65.0359 0.0742188 63.9235V15.573C0.0742188 14.3865 1.03974 13.4966 2.15379 13.4966H92.6896C93.8779 13.4966 94.8434 14.3865 94.8434 15.573Z" fill="url(#paint0_linear_375_954)"/>
<path d="M95.0667 42.6404H22.6529C22.2072 42.6404 21.9102 42.3437 21.9102 41.8988C21.9102 41.4539 22.2072 41.1572 22.6529 41.1572H95.0667C95.5123 41.1572 95.8094 41.4539 95.8094 41.8988C95.8094 42.3437 95.5123 42.6404 95.0667 42.6404Z" fill="white"/>
<path d="M95.067 26.4741H58.5259C58.0803 26.4741 57.7832 26.1775 57.7832 25.7325C57.7832 25.2876 58.0803 24.991 58.5259 24.991H95.067C95.5126 24.991 95.8097 25.2876 95.8097 25.7325C95.8097 26.1775 95.5126 26.4741 95.067 26.4741Z" fill="white"/>
<path d="M80.5093 67.4831C80.2865 67.4831 80.138 67.4089 79.9894 67.2606C79.6923 66.964 79.6923 66.519 79.9894 66.2224L95.7348 50.2044C96.0318 49.9078 96.4775 49.9078 96.7746 50.2044C97.0716 50.501 97.0716 50.946 96.7746 51.2426L81.0292 67.2606C80.8807 67.4089 80.6579 67.4831 80.5093 67.4831Z" fill="white"/>
<path d="M64.9868 67.6313C64.764 67.6313 64.6155 67.5571 64.467 67.4088C64.1699 67.1122 64.1699 66.6672 64.467 66.3706L89.199 41.5279C89.4961 41.2313 89.9417 41.2313 90.2388 41.5279C90.5359 41.8245 90.5359 42.2695 90.2388 42.5661L65.5067 67.4088C65.3582 67.5571 65.1354 67.6313 64.9868 67.6313Z" fill="white"/>
<path d="M49.687 67.4089C49.4642 67.4089 49.3157 67.3348 49.1671 67.1864C48.8701 66.8898 48.8701 66.4449 49.1671 66.1482L73.3793 41.973C73.6764 41.6763 74.1221 41.6763 74.4191 41.973C74.7162 42.2696 74.7162 42.7145 74.4191 43.0112L50.2069 67.1864C50.0584 67.3348 49.9099 67.4089 49.687 67.4089Z" fill="white"/>
<path d="M34.1646 67.7056C33.9418 67.7056 33.7932 67.6314 33.6447 67.4831C33.3476 67.1865 33.3476 66.7416 33.6447 66.4449L58.3768 41.4539C58.6739 41.1573 59.1195 41.1573 59.4166 41.4539C59.7136 41.7505 59.7136 42.1955 59.4166 42.4921L34.6845 67.4831C34.5359 67.6314 34.3874 67.7056 34.1646 67.7056Z" fill="white"/>
<path d="M18.0474 67.4089C17.8246 67.4089 17.676 67.3347 17.5275 67.1864C17.2304 66.8898 17.2304 66.4448 17.5275 66.1482L41.6654 41.3055C41.9625 41.0089 42.4081 41.0089 42.7052 41.3055C43.0023 41.6021 43.0023 42.0471 42.7052 42.3437L18.5673 67.1864C18.4187 67.3347 18.1959 67.4089 18.0474 67.4089Z" fill="white"/>
<path d="M1.56009 67.4088C1.33728 67.4088 1.18874 67.3346 1.04019 67.1863C0.743112 66.8897 0.743112 66.4447 1.04019 66.1481L26.3665 42.1212C26.6635 41.8245 27.1092 41.8245 27.4062 42.1212C27.7033 42.4178 27.7033 42.8627 27.4062 43.1594L2.00571 67.1863C1.85717 67.3346 1.70863 67.4088 1.56009 67.4088Z" fill="white"/>
<path d="M-14.7055 66.6672C-14.9283 66.6672 -15.0769 66.593 -15.2254 66.4447C-15.5225 66.1481 -15.5225 65.7031 -15.2254 65.4065L15.2998 35.8919C15.5969 35.5953 16.0425 35.5953 16.3396 35.8919C16.6366 36.1885 16.6366 36.6335 16.3396 36.9301L-14.1856 66.4447C-14.3342 66.593 -14.557 66.6672 -14.7055 66.6672Z" fill="white"/>
<path d="M-14.7055 49.9819C-14.9283 49.9819 -15.0769 49.9077 -15.2254 49.7594C-15.5225 49.4628 -15.5225 49.0178 -15.2254 48.7212L15.2998 19.2066C15.5969 18.91 16.0425 18.91 16.3396 19.2066C16.6366 19.5032 16.6366 19.9482 16.3396 20.2448L-14.1856 49.7594C-14.3342 49.9077 -14.557 49.9819 -14.7055 49.9819Z" fill="white"/>
<path d="M85.1148 26.3999C84.892 26.3999 84.7434 26.3257 84.5949 26.1774C84.2978 25.8808 84.2978 25.4358 84.5949 25.1392L97.5922 12.1617C97.8893 11.8651 98.3349 11.8651 98.632 12.1617C98.9291 12.4583 98.9291 12.9033 98.632 13.1999L85.6347 26.1774C85.4861 26.3257 85.3376 26.3999 85.1148 26.3999Z" fill="white"/>
<path d="M69.4429 26.3258C69.2201 26.3258 69.0715 26.2517 68.923 26.1034C68.6259 25.8067 68.6259 25.3618 68.923 25.0652L81.9204 12.0135C82.2174 11.7169 82.6631 11.7169 82.9601 12.0135C83.2572 12.3101 83.2572 12.7551 82.9601 13.0517L69.9628 26.1034C69.8142 26.2517 69.5914 26.3258 69.4429 26.3258Z" fill="white"/>
<path d="M51.2466 27.7348C51.0238 27.7348 50.8753 27.6607 50.7267 27.5124C50.4296 27.2157 50.4296 26.7708 50.7267 26.4742L65.2095 12.0135C65.5066 11.7169 65.9522 11.7169 66.2493 12.0135C66.5463 12.3101 66.5463 12.7551 66.2493 13.0517L51.7665 27.5124C51.618 27.6607 51.3952 27.7348 51.2466 27.7348Z" fill="white"/>
<path d="M-1.11374 24.1752C-1.33655 24.1752 -1.48509 24.101 -1.63363 23.9527C-1.93072 23.6561 -1.93072 23.2111 -1.63363 22.9145L17.6767 3.6336C17.9738 3.33698 18.4194 3.33698 18.7165 3.6336C19.0136 3.93023 19.0136 4.37518 18.7165 4.67181L-0.593846 23.9527C-0.668116 24.101 -0.890928 24.1752 -1.11374 24.1752Z" fill="white"/>
<path d="M73.3799 37.4495H55.9263C55.4807 37.4495 55.1836 37.1528 55.1836 36.7079C55.1836 36.2629 55.4807 35.9663 55.9263 35.9663H73.3799C73.8255 35.9663 74.1226 36.2629 74.1226 36.7079C74.1226 37.1528 73.8255 37.4495 73.3799 37.4495Z" fill="white"/>
<path d="M73.379 36.1147H55.9254C54.6628 36.1147 53.6973 35.1507 53.6973 33.89C53.6973 32.6293 54.6628 31.6653 55.9254 31.6653H73.379C74.6416 31.6653 75.6071 32.6293 75.6071 33.89C75.6071 35.1507 74.6416 36.1147 73.379 36.1147Z" fill="white"/>
<path d="M73.3799 31.7393H55.9263C55.4807 31.7393 55.1836 31.4426 55.1836 30.9977C55.1836 30.5527 55.4807 30.2561 55.9263 30.2561H73.3799C73.8255 30.2561 74.1226 30.5527 74.1226 30.9977C74.1226 31.4426 73.8255 31.7393 73.3799 31.7393Z" fill="white"/>
<path d="M35.0555 51.91C49.6171 51.91 61.4215 40.1235 61.4215 25.5841C61.4215 11.0448 49.6171 -0.741699 35.0555 -0.741699C20.4939 -0.741699 8.68945 11.0448 8.68945 25.5841C8.68945 40.1235 20.4939 51.91 35.0555 51.91Z" fill="url(#paint1_linear_375_954)"/>
<path d="M34.9074 49.7595C39.7066 49.7595 43.5971 45.875 43.5971 41.0831C43.5971 36.2913 39.7066 32.4067 34.9074 32.4067C30.1083 32.4067 26.2178 36.2913 26.2178 41.0831C26.2178 45.875 30.1083 49.7595 34.9074 49.7595Z" fill="white"/>
<path d="M35.1301 18.836C39.9292 18.836 43.8197 14.9514 43.8197 10.1596C43.8197 5.36771 39.9292 1.48315 35.1301 1.48315C30.3309 1.48315 26.4404 5.36771 26.4404 10.1596C26.4404 14.9514 30.3309 18.836 35.1301 18.836Z" fill="white"/>
<path d="M50.5783 34.2608C55.3775 34.2608 59.268 30.3762 59.268 25.5844C59.268 20.7925 55.3775 16.908 50.5783 16.908C45.7792 16.908 41.8887 20.7925 41.8887 25.5844C41.8887 30.3762 45.7792 34.2608 50.5783 34.2608Z" fill="white"/>
<path d="M19.6076 34.2608C24.4068 34.2608 28.2973 30.3762 28.2973 25.5844C28.2973 20.7925 24.4068 16.908 19.6076 16.908C14.8085 16.908 10.918 20.7925 10.918 25.5844C10.918 30.3762 14.8085 34.2608 19.6076 34.2608Z" fill="white"/>
<path d="M35.0559 28.9954C36.8197 28.9954 38.2496 27.5678 38.2496 25.8067C38.2496 24.0456 36.8197 22.6179 35.0559 22.6179C33.2921 22.6179 31.8623 24.0456 31.8623 25.8067C31.8623 27.5678 33.2921 28.9954 35.0559 28.9954Z" fill="white"/>
<path d="M84.5938 39.6742H74.0474C73.676 39.6742 73.3047 39.3776 73.3047 38.9326V28.4764C73.3047 28.1056 73.6018 27.7349 74.0474 27.7349H84.5938C84.9652 27.7349 85.3365 28.0315 85.3365 28.4764V39.0068C85.2622 39.3776 84.9652 39.6742 84.5938 39.6742ZM74.7901 38.2652H83.9254V29.1439H74.7901V38.2652Z" fill="white"/>
<path d="M84.5201 28.4763H73.9736V39.0067H84.5201V28.4763Z" fill="white"/>
<path d="M112 33.2225C112 33.1484 112 33.1484 112 33.0742C112 33 112 33 111.926 32.9259C111.851 32.6293 111.628 32.4068 111.257 32.4068L105.538 28.9955C105.241 28.8472 104.87 28.9214 104.721 29.218C104.573 29.5146 104.647 29.8854 104.944 30.0337L108.88 32.4068H96.1802C95.7346 32.4068 95.4375 32.7034 95.4375 33.1484C95.4375 33.5933 95.7346 33.8899 96.1802 33.8899H108.955L104.944 36.1888C104.647 36.3371 104.573 36.7079 104.721 37.0045C104.87 37.227 105.018 37.3012 105.241 37.3012C105.315 37.3012 105.464 37.3012 105.538 37.227L111.406 33.8158C111.554 33.7416 111.703 33.6675 111.777 33.5191L111.851 33.445V33.3708C111.851 33.2967 111.851 33.2967 111.926 33.2225C112 33.2967 112 33.2225 112 33.2225Z" fill="url(#paint2_linear_375_954)"/>
<path d="M35.056 52.7258C20.1276 52.7258 7.94727 40.564 7.94727 25.6584C7.94727 10.7528 20.1276 -1.48315 35.056 -1.48315C49.9844 -1.48315 62.1648 10.6786 62.1648 25.5843C62.1648 40.4899 50.0587 52.7258 35.056 52.7258ZM35.056 -8.22544e-06C20.9446 -8.22544e-06 9.43268 11.4944 9.43268 25.5843C9.43268 39.6741 20.9446 51.1685 35.056 51.1685C49.1674 51.1685 60.6794 39.6741 60.6794 25.5843C60.7536 11.4944 49.2417 -8.22544e-06 35.056 -8.22544e-06Z" fill="white"/>
<defs>
<linearGradient id="paint0_linear_375_954" x1="47.4429" y1="13.7181" x2="47.4429" y2="66.0456" gradientUnits="userSpaceOnUse">
<stop stop-color="#009378"/>
<stop offset="1" stop-color="#4EB066"/>
</linearGradient>
<linearGradient id="paint1_linear_375_954" x1="35.0926" y1="-0.741625" x2="35.0926" y2="51.9503" gradientUnits="userSpaceOnUse">
<stop stop-color="#009378"/>
<stop offset="1" stop-color="#4EB066"/>
</linearGradient>
<linearGradient id="paint2_linear_375_954" x1="103.712" y1="28.9843" x2="103.712" y2="37.3709" gradientUnits="userSpaceOnUse">
<stop stop-color="#009378"/>
<stop offset="1" stop-color="#4EB066"/>
</linearGradient>
</defs>
</svg>
