<svg width="79" height="79" viewBox="0 0 79 79" fill="none" xmlns="http://www.w3.org/2000/svg">
<path d="M29.3665 58.3056C45.5852 58.3056 58.733 45.2535 58.733 29.1528C58.733 13.0522 45.5852 0 29.3665 0C13.1478 0 0 13.0522 0 29.1528C0 45.2535 13.1478 58.3056 29.3665 58.3056Z" fill="url(#paint0_linear_375_988)"/>
<path d="M29.3664 55.3494C14.7245 55.3494 2.8125 43.6061 2.8125 29.235C2.8125 14.7818 14.7245 3.03857 29.3664 3.03857C44.0083 3.03857 55.9204 14.7818 55.9204 29.1529C55.9204 43.6061 44.0083 55.3494 29.3664 55.3494ZM29.3664 4.68099C15.6345 4.68099 4.46695 15.6851 4.46695 29.1529C4.46695 42.6207 15.6345 53.6249 29.3664 53.6249C43.0984 53.6249 54.2659 42.7028 54.2659 29.1529C54.2659 15.603 43.0984 4.68099 29.3664 4.68099Z" fill="white"/>
<path d="M78.9999 29.317C78.9999 29.2348 78.9999 29.2348 78.9999 29.1527C78.9999 29.0706 78.9999 29.0706 78.9171 28.9885C78.8344 28.66 78.5035 28.4136 78.1726 28.4136L71.803 24.6361C71.4721 24.4718 71.0585 24.554 70.893 24.8824C70.7276 25.2109 70.8103 25.6215 71.1412 25.7858L75.5255 28.4136H61.38C60.8836 28.4136 60.5527 28.7421 60.5527 29.2348C60.5527 29.7276 60.8836 30.056 61.38 30.056H75.6082L71.1412 32.6839C70.8103 32.8481 70.7276 33.2587 70.893 33.5872C71.0585 33.8336 71.2239 33.9157 71.4721 33.9157C71.5548 33.9157 71.7203 33.9157 71.803 33.8336L78.3381 30.056C78.5035 29.9739 78.669 29.8918 78.7517 29.7276L78.8344 29.6454V29.5633C78.8344 29.4812 78.8344 29.4812 78.9171 29.3991C78.9999 29.3991 78.9999 29.317 78.9999 29.317Z" fill="url(#paint1_linear_375_988)"/>
<path d="M33.6677 67.8317L29.8624 61.3441C29.7797 61.1799 29.697 61.0156 29.5315 60.9335L29.4488 60.8514H29.3661C29.2834 60.8514 29.2834 60.8514 29.2007 60.7693C29.1179 60.7693 29.1179 60.7693 29.0352 60.7693C28.9525 60.7693 28.9525 60.7693 28.8698 60.7693C28.787 60.7693 28.787 60.7693 28.7043 60.8514C28.3734 60.9335 28.1253 61.262 28.1253 61.5905L24.32 67.9138C24.1546 68.2423 24.2373 68.6529 24.5682 68.8171C24.6509 68.8992 24.8164 68.8992 24.8991 68.8992C25.1473 68.8992 25.3127 68.8171 25.4781 68.5707L28.1253 64.2183V78.261C28.1253 78.7537 28.4562 79.0822 28.9525 79.0822C29.4488 79.0822 29.7797 78.7537 29.7797 78.261V64.0541L32.3441 68.4886C32.5096 68.735 32.675 68.8171 32.9232 68.8171C33.0059 68.8171 33.1713 68.8171 33.2541 68.735C33.7504 68.5707 33.8331 68.1601 33.6677 67.8317Z" fill="url(#paint2_linear_375_988)"/>
<path d="M29.3667 17.5737C22.9144 17.5737 17.6201 22.7473 17.6201 29.2349C17.6201 35.7224 22.8316 40.896 29.3667 40.896C35.8191 40.896 41.1133 35.7224 41.1133 29.2349C41.1133 22.7473 35.9018 17.5737 29.3667 17.5737ZM32.0966 31.37C30.8557 32.8482 28.6222 33.0945 27.1332 31.8627C25.6442 30.6309 25.396 28.4136 26.6369 26.9355C27.8777 25.4573 30.1112 25.2109 31.6002 26.4428C33.0892 27.6746 33.3374 29.8918 32.0966 31.37Z" fill="white"/>
<path d="M24.0719 18.6413C23.9892 18.2307 22.0038 7.80139 29.118 3.20264L30.0279 4.59869C23.8237 8.6226 25.6436 18.2307 25.6436 18.3949L24.0719 18.6413Z" fill="white"/>
<path d="M36.8944 20.9408L35.7363 19.7911C36.0672 19.4626 44.0913 11.9897 52.1154 15.603L51.4536 17.0811C44.4222 13.9606 36.9772 20.9408 36.8944 20.9408Z" fill="white"/>
<path d="M50.7085 42.4563C50.2121 34.737 40.4509 31.2058 40.3682 31.2058L40.9472 29.6455C41.3608 29.8097 51.8666 33.5052 52.3629 42.2921L50.7085 42.4563Z" fill="white"/>
<path d="M30.7727 55.0209L29.6973 53.707C35.3224 49.1903 32.5926 39.9928 32.5926 39.9107L34.1643 39.418C34.247 39.9107 37.225 49.7652 30.7727 55.0209Z" fill="white"/>
<path d="M11.9951 44.0167C10.258 44.0167 8.52078 43.6882 6.61816 42.7028L7.44539 41.3067C14.8077 45.0022 22.17 37.9398 22.2527 37.8577L23.4108 39.0074C23.1627 39.2537 18.1993 44.0167 11.9951 44.0167Z" fill="white"/>
<path d="M18.1985 27.2639C17.7849 27.1818 7.44461 25.4573 5.54199 17.3274L7.11372 16.9167C8.76817 23.897 18.2813 25.5394 18.364 25.5394L18.1985 27.2639Z" fill="white"/>
<path d="M29.2835 35.6404C32.9841 35.6404 35.9841 32.6623 35.9841 28.9887C35.9841 25.315 32.9841 22.3369 29.2835 22.3369C25.5829 22.3369 22.583 25.315 22.583 28.9887C22.583 32.6623 25.5829 35.6404 29.2835 35.6404Z" fill="url(#paint3_linear_375_988)"/>
<defs>
<linearGradient id="paint0_linear_375_988" x1="29.3889" y1="0" x2="29.3889" y2="58.3501" gradientUnits="userSpaceOnUse">
<stop stop-color="#009378"/>
<stop offset="1" stop-color="#4EB066"/>
</linearGradient>
<linearGradient id="paint1_linear_375_988" x1="69.7724" y1="24.6124" x2="69.7724" y2="33.9" gradientUnits="userSpaceOnUse">
<stop stop-color="#009378"/>
<stop offset="1" stop-color="#4EB066"/>
</linearGradient>
<linearGradient id="paint2_linear_375_988" x1="29.0472" y1="60.7233" x2="29.0472" y2="78.9831" gradientUnits="userSpaceOnUse">
<stop stop-color="#009378"/>
<stop offset="1" stop-color="#4EB066"/>
</linearGradient>
<linearGradient id="paint3_linear_375_988" x1="29.304" y1="22.3386" x2="29.304" y2="35.5837" gradientUnits="userSpaceOnUse">
<stop stop-color="#009378"/>
<stop offset="1" stop-color="#4EB066"/>
</linearGradient>
</defs>
</svg>
