<svg width="85" height="119" viewBox="0 0 85 119" fill="none" xmlns="http://www.w3.org/2000/svg">
<path d="M83.9748 91.8613H77.8235V19.8644C77.8235 19.6779 77.8235 19.5847 77.7303 19.4914C77.7303 19.1183 77.7303 18.652 77.7303 18.1857C77.8235 4.66302 63.9364 0.839352 60.7675 0.0932705C60.3947 1.03265e-05 60.1151 0.279791 60.1151 0.652832V12.4036H0V19.3049H25.9101L14.5395 60.7124H3.72807C1.95724 60.7124 0.372807 61.9248 0.0932018 63.6035C-0.372807 65.935 1.39803 67.9867 3.63487 67.9867H53.9638C55.7347 67.9867 57.3191 66.7743 57.5987 65.0956C58.0647 62.7641 56.2939 60.7124 54.057 60.7124H41.9408L30.5702 19.2116H60.1151V33.8535C60.1151 34.1332 60.3947 34.413 60.6743 34.413C63.0976 34.1332 72.1382 32.5478 75.9594 25.5533V91.8613H70.3673C69.7149 91.8613 69.2489 92.4209 69.3421 93.0737L73.7226 118.347C74.0022 119.187 80.2467 119.187 80.5263 118.347L85 93.0737C85.0932 92.4209 84.6272 91.8613 83.9748 91.8613Z" fill="url(#paint0_linear_375_1003)"/>
<path d="M19.9453 61.3652L27.1218 34.786C27.4015 33.9467 28.6131 33.9467 28.8927 34.786L36.0692 61.3652H19.9453Z" fill="white"/>
<defs>
<linearGradient id="paint0_linear_375_1003" x1="42.518" y1="0.115" x2="42.518" y2="119.011" gradientUnits="userSpaceOnUse">
<stop stop-color="#009378"/>
<stop offset="1" stop-color="#4EB066"/>
</linearGradient>
</defs>
</svg>
