<svg width="26" height="26" viewBox="0 0 26 26" fill="none" xmlns="http://www.w3.org/2000/svg">
<path d="M0.507795 25.999H25.4913C25.7717 25.999 25.9991 25.7716 25.9991 25.4912V22.1398C25.9991 21.1951 25.3508 20.399 24.4757 20.1729V17.3158C24.4757 17.0354 24.2484 16.808 23.9679 16.808C23.6875 16.808 23.4601 17.0354 23.4601 17.3158V20.1729C22.585 20.399 21.9367 21.1951 21.9367 22.1398V24.9834H18.0344L16.6104 8.93468L20.9079 7.82043L21.5661 10.2766C21.6392 10.5493 21.9197 10.7083 22.1892 10.6353L23.4602 10.2917V12.7455C23.4602 13.0259 23.6875 13.2533 23.968 13.2533C24.2484 13.2533 24.4758 13.0259 24.4758 12.7455V10.0166L25.1044 9.84679C25.2589 9.80505 25.3847 9.69287 25.4438 9.54414C25.4848 9.44096 26.44 6.9878 25.7513 4.41633C25.063 1.84892 23.0399 0.183251 22.954 0.113581C22.8268 0.0102957 22.6575 -0.0253008 22.4995 0.0181665L19.5563 0.826576C19.2871 0.90051 19.128 1.17797 19.2003 1.44761L19.8564 3.8963L1.50551 8.65438C0.619103 8.89223 0 9.69907 0 10.6165C0 11.9574 1.27274 12.9221 2.55273 12.5795L3.04677 12.4514V15.5385H2.03118C1.83883 15.5385 1.66303 15.6471 1.57701 15.8192L0.0536231 18.8659C0.0183314 18.9364 0 19.0142 0 19.093V25.4912C0 25.7717 0.22734 25.999 0.507795 25.999ZM7.61692 19.6008V24.9834H4.06236V19.6008H7.61692ZM16.898 23.666L13.1514 18.3821H16.4292L16.898 23.666ZM16.26 16.4758L13.7578 13.812H16.0237L16.26 16.4758ZM15.7034 17.3665H12.7059L12.9643 14.4505L15.7034 17.3665ZM12.5371 19.2716L16.5872 24.9834H12.031L12.5371 19.2716ZM22.9523 22.1398C22.9523 21.5798 23.4079 21.1242 23.9679 21.1242C24.5279 21.1242 24.9835 21.5798 24.9835 22.1398V24.9834H22.9523V22.1398ZM15.9336 12.7964H13.1109L13.3788 9.77255L15.6139 9.193L15.9336 12.7964ZM22.5034 1.07027C22.9906 1.52327 24.2822 2.85841 24.7703 4.67911C25.2568 6.49585 24.7811 8.30695 24.5801 8.93646C21.6788 9.72146 22.6011 9.47193 22.4154 9.52215L20.3118 1.67216L22.5034 1.07027ZM2.29386 11.5975C1.64901 11.77 1.01559 11.2846 1.01559 10.6165C1.01559 10.1578 1.32529 9.75427 1.76459 9.63636L20.1193 4.87725L20.6451 6.83942C16.543 7.903 6.09486 10.612 2.29386 11.5975ZM4.06236 12.1881L12.3352 10.0431C12.3333 10.065 11.0118 24.9784 11.0114 24.9834H8.63251V19.093C8.63251 18.8126 8.40517 18.5852 8.12471 18.5852H7.10912V16.0462C7.10912 15.7658 6.88178 15.5385 6.60133 15.5385H4.06236V12.1881ZM1.01559 19.2129L2.345 16.5541H6.09354V18.5853H3.55456C3.27411 18.5853 3.04677 18.8127 3.04677 19.0931V24.9835H1.01559V19.2129Z" fill="white"/>
</svg>
