<svg width="26" height="23" viewBox="0 0 26 23" fill="none" xmlns="http://www.w3.org/2000/svg">
<path d="M25.9906 21.2578L24.4714 6.77597C24.4307 6.38817 24.1037 6.09375 23.7139 6.09375H19.9055C19.5156 6.09375 19.1887 6.38817 19.148 6.77597L18.0956 16.8082H14.929V12.2379C14.929 11.8172 14.588 11.4762 14.1673 11.4762H13.3043V9.19114C13.3043 8.77048 12.9633 8.42945 12.5427 8.42945H2.28517C1.86452 8.42945 1.52348 8.77048 1.52348 9.19114V11.4762H0.76169C0.341034 11.4762 0 11.8172 0 12.2379V21.3783C0 21.799 0.341034 22.14 0.76169 22.14H25.2373H25.2383C25.659 22.14 26 21.799 26 21.3783C26 21.3373 25.9967 21.2971 25.9906 21.2578ZM3.04686 9.95283H11.781V11.4762H3.04686V9.95283ZM6.70283 20.6166H4.5703V19.0933H6.70283V20.6166ZM10.3587 20.6166H8.22626V19.0933H10.3588V20.6166H10.3587ZM13.4057 20.6166H11.8821V18.3316C11.8821 17.9109 11.5411 17.5699 11.1204 17.5699H7.46457H7.46452H7.46447H3.8086C3.38795 17.5699 3.04691 17.9109 3.04691 18.3316V20.6166H1.52338V12.9996H13.4057V20.6166ZM17.6961 20.6166H14.929V18.3316H17.9358L17.6961 20.6166ZM19.2278 20.6166L20.5914 7.61713H23.0278L24.3915 20.6166H19.2278Z" fill="white"/>
<path d="M20.2857 4.57029C20.7064 4.57029 21.0474 4.22926 21.0474 3.8086V0.76169C21.0474 0.341034 20.7064 0 20.2857 0C19.8651 0 19.524 0.341034 19.524 0.76169V3.8086C19.524 4.22926 19.8651 4.57029 20.2857 4.57029Z" fill="white"/>
<path d="M23.3326 4.57025C23.7533 4.57025 24.0943 4.22922 24.0943 3.80856V2.28513C24.0943 1.86447 23.7533 1.52344 23.3326 1.52344C22.912 1.52344 22.5709 1.86447 22.5709 2.28513V3.80861C22.5709 4.22922 22.9119 4.57025 23.3326 4.57025Z" fill="white"/>
<path d="M4.36716 16.0463C4.78783 16.0463 5.12885 15.7053 5.12885 15.2846C5.12885 14.864 4.78783 14.5229 4.36716 14.5229C3.94649 14.5229 3.60547 14.864 3.60547 15.2846C3.60547 15.7053 3.94649 16.0463 4.36716 16.0463Z" fill="white"/>
<path d="M7.41403 16.0463C7.8347 16.0463 8.17572 15.7053 8.17572 15.2846C8.17572 14.864 7.8347 14.5229 7.41403 14.5229C6.99336 14.5229 6.65234 14.864 6.65234 15.2846C6.65234 15.7053 6.99336 16.0463 7.41403 16.0463Z" fill="white"/>
<path d="M10.4609 16.0463C10.8816 16.0463 11.2226 15.7053 11.2226 15.2846C11.2226 14.864 10.8816 14.5229 10.4609 14.5229C10.0402 14.5229 9.69922 14.864 9.69922 15.2846C9.69922 15.7053 10.0402 16.0463 10.4609 16.0463Z" fill="white"/>
</svg>
