<svg width="26" height="26" viewBox="0 0 26 26" fill="none" xmlns="http://www.w3.org/2000/svg">
<path d="M24.9176 15.9834C24.4518 15.373 23.8534 14.8695 23.1787 14.5115C23.5392 13.8954 23.746 13.179 23.746 12.4153V10.4624C23.746 8.16629 21.8773 6.29825 19.5805 6.29825C18.7561 6.29825 17.9701 6.54291 17.307 6.97313V3.04286C17.3069 1.365 15.9419 0 14.2641 0H7.38187V3.07364C7.38187 4.10434 7.89699 5.01698 8.68329 5.56766V6.96678C8.02222 6.54047 7.23993 6.29825 6.41956 6.29825C4.12273 6.29825 2.25408 8.16629 2.25408 10.4624V12.4153C2.25408 13.1791 2.46086 13.8954 2.82136 14.5115C2.14657 14.8695 1.54817 15.373 1.08245 15.9834C0.374309 16.9115 0 18.0204 0 19.1903V26H26V19.1903C26 18.0204 25.6257 16.9115 24.9176 15.9834ZM8.9053 1.52344H14.264C15.1018 1.52344 15.7835 2.20502 15.7835 3.04286V4.59306H10.4247C9.58694 4.59306 8.9053 3.91148 8.9053 3.07364V1.52344ZM15.7835 6.1165V8.1802C15.7835 9.71694 14.5326 10.9672 12.9951 10.9672C11.4576 10.9672 10.2067 9.71694 10.2067 8.1802V6.10873C10.2787 6.11386 10.3515 6.11645 10.4247 6.11645H15.7835V6.1165ZM5.66968 24.4766H1.52344V19.1903C1.52344 17.6569 2.46832 16.2751 3.86455 15.7019C4.38273 16.1054 4.9984 16.3893 5.66973 16.5118V24.4766H5.66968ZM5.66968 14.8311V14.9477C4.57691 14.6239 3.77746 13.6112 3.77746 12.4153V10.4625C3.77746 9.00636 4.9627 7.82173 6.41956 7.82173C7.52629 7.82173 8.52358 8.51454 8.90541 9.54708C9.02124 9.89249 9.17968 10.2186 9.37452 10.5189C7.28025 10.8352 5.66968 12.6484 5.66968 14.8311ZM12.2334 24.4766H7.19311V14.8311C7.19311 13.4259 8.21874 12.2559 9.56003 12.0321C9.57785 12.5638 9.62396 13.1992 9.72446 13.8886C10.0751 16.2941 10.9402 18.2796 12.2334 19.656V24.4766ZM11.0877 12.0455C11.6631 12.3304 12.3107 12.4907 12.9952 12.4907C13.6804 12.4907 14.3287 12.33 14.9046 12.0446C14.8438 13.6677 14.4942 16.3155 12.9954 18.2093C11.5003 16.318 11.1499 13.6675 11.0877 12.0455ZM18.7971 24.4766H13.7568V19.656C15.0501 18.2794 15.9153 16.2925 16.2658 13.8847C16.366 13.1971 16.4121 12.5632 16.4301 12.0321C17.7714 12.2558 18.7971 13.4258 18.7971 14.8311V24.4766ZM16.6157 10.5189C16.8088 10.221 16.9663 9.89803 17.0818 9.55591L17.0901 9.55896C17.4686 8.51982 18.4694 7.82168 19.5804 7.82168C21.0373 7.82168 22.2225 9.00631 22.2225 10.4624V12.4153C22.2225 13.6147 21.4183 14.6299 20.3206 14.9505V14.8311C20.3206 12.6484 18.71 10.8352 16.6157 10.5189ZM24.4766 24.4766H20.3206V16.5136C20.9957 16.3921 21.6148 16.1074 22.1355 15.702C23.5317 16.2751 24.4766 17.6569 24.4766 19.1903V24.4766Z" fill="white"/>
</svg>
