<svg width="26" height="22" viewBox="0 0 26 22" fill="none" xmlns="http://www.w3.org/2000/svg">
<path d="M22.8576 4.09123H17.3878V1.89577C17.3878 0.850411 16.534 0 15.4845 0H9.90001C8.85055 0 7.99676 0.850411 7.99676 1.89577V4.09123H2.52703C1.13359 4.09123 0 5.22044 0 6.60839V19.4829C0 20.8708 1.13359 22 2.52703 22H22.8576C24.251 22 25.3846 20.8708 25.3846 19.4829V6.60839C25.3846 5.22044 24.251 4.09123 22.8576 4.09123ZM9.60883 1.89577C9.60883 1.73585 9.73946 1.60578 9.90001 1.60578H15.4845C15.6451 1.60578 15.7757 1.7359 15.7757 1.89577V4.09123H9.60883V1.89577ZM1.61208 6.60839C1.61208 6.10583 2.0225 5.69701 2.52703 5.69701H22.8576C23.3621 5.69701 23.7725 6.10583 23.7725 6.60839V7.79672C23.7725 8.91133 23.0222 9.90737 21.9479 10.2189L13.5175 12.6639C12.9777 12.8205 12.407 12.8205 11.8671 12.6639L3.43675 10.2189C2.3624 9.90732 1.61208 8.91133 1.61208 7.79672V6.60839ZM22.8576 20.3943H2.52703C2.02255 20.3943 1.61208 19.9854 1.61208 19.4829V11.0659C2.01827 11.3787 2.48129 11.6143 2.98607 11.7607C12.2988 14.4615 11.8201 14.3872 12.6923 14.3872C13.576 14.3872 13.0749 14.4647 22.3985 11.7607C22.9033 11.6143 23.3663 11.3787 23.7725 11.0659V19.4829C23.7725 19.9854 23.3621 20.3943 22.8576 20.3943Z" fill="white"/>
</svg>
