<svg width="26" height="19" viewBox="0 0 26 19" fill="none" xmlns="http://www.w3.org/2000/svg">
<path d="M25.9275 10.0075C25.793 9.37091 25.1047 8.85857 23.8575 8.48078C22.8121 8.1651 21.4976 7.97879 20.0486 7.94774L19.9088 2.05841C19.7174 1.47879 19.0291 1.00785 17.8647 0.655941C16.7002 0.30403 15.1839 0.112549 13.5848 0.112549C11.9908 0.112549 10.4849 0.30403 9.34634 0.655941C8.40963 0.945749 7.28662 1.48397 7.28662 2.41032C7.28662 2.46725 7.2918 2.52417 7.30215 2.5811L7.35908 4.94097C6.97611 4.86852 6.58798 4.83229 6.19467 4.83229C2.77906 4.83229 0 7.61135 0 11.027C0 14.4477 2.76871 17.2216 6.18949 17.2216C7.61266 17.2216 8.99443 16.73 10.0967 15.8347C11.0697 16.0624 12.2134 16.1866 13.4244 16.1969C13.6883 17.6305 16.7986 18.2877 19.6967 18.2877C21.2906 18.2877 22.7914 18.0911 23.9403 17.7391C24.8873 17.4493 26 16.9059 26 15.9796L25.9275 10.0075ZM9.63615 1.64957C10.6815 1.32871 12.084 1.14758 13.5744 1.14758C15.0494 1.14758 16.5036 1.32871 17.5593 1.64957C18.6875 1.99113 18.9307 2.34304 18.9307 2.41549C18.9307 2.48795 18.6875 2.83986 17.5593 3.18142C16.5088 3.4971 15.0545 3.68341 13.5796 3.68341C12.1513 3.68341 10.7954 3.5178 9.76552 3.21764C8.65287 2.89678 8.33718 2.5397 8.31131 2.42585C8.31131 2.42067 8.30613 2.41549 8.30095 2.41032C8.30095 2.30164 8.64769 1.95491 9.63615 1.64957ZM19.0135 3.69376V4.98755C18.9566 5.07553 18.9307 5.17385 18.9307 5.27736C18.9307 5.34463 18.6875 5.70172 17.5645 6.04328C16.5139 6.36414 15.0597 6.54527 13.5848 6.54527C12.3065 6.54527 11.0541 6.41072 10.0605 6.15713C10.045 6.15196 10.0295 6.15196 10.0191 6.14678C9.53264 5.75865 8.98408 5.44814 8.40446 5.23078L8.36823 3.77139C8.72532 3.95252 9.09793 4.09742 9.48607 4.20092C10.6091 4.52696 12.0633 4.70292 13.59 4.70292C15.1891 4.70292 16.7054 4.51143 17.8647 4.15952C18.258 4.05602 18.6461 3.89559 19.0135 3.69376ZM9.66202 14.8411C7.55573 16.761 4.29021 16.6058 2.3754 14.4995C0.460589 12.3932 0.610669 9.12768 2.71696 7.21287C3.66919 6.34862 4.90605 5.86733 6.18949 5.86733C6.70701 5.86733 7.21935 5.94495 7.71616 6.09503C8.38893 6.30204 9.01513 6.64877 9.54817 7.11454C10.4176 7.85459 11.0127 8.86892 11.2456 9.98675C11.3129 10.3283 11.3491 10.6802 11.3491 11.027C11.3543 12.4812 10.7385 13.8681 9.66202 14.8411ZM10.9765 14.9549C11.3957 14.4426 11.7321 13.8681 11.9701 13.2523C12.4152 13.2885 12.881 13.3144 13.3623 13.3196C13.3519 13.3817 13.3519 13.4386 13.3623 13.5007L13.383 15.1671C12.5808 15.1567 11.7787 15.0895 10.9765 14.9549ZM12.3583 10.4111C12.6636 10.4318 12.9793 10.4422 13.3053 10.4473C13.3105 10.4836 13.3209 10.5198 13.3312 10.556L13.3519 12.2793C12.9793 12.2742 12.6119 12.2586 12.2651 12.2328C12.3428 11.8343 12.3842 11.4254 12.3842 11.0218C12.3842 10.82 12.3738 10.6181 12.3583 10.4111ZM13.621 9.41748C13.6055 9.41748 13.5951 9.41748 13.5796 9.41748C13.0776 9.41748 12.6015 9.39678 12.1564 9.36056C11.965 8.67226 11.6493 8.02019 11.2353 7.4354C12.0115 7.53373 12.7982 7.58548 13.5796 7.58548C15.1787 7.58548 16.6951 7.394 17.8543 7.04209C18.258 6.92823 18.6409 6.7678 19.0084 6.56597V7.94774C17.7146 7.98397 16.4984 8.14957 15.5307 8.42385C14.6198 8.68261 13.9833 9.01382 13.621 9.41748ZM14.3352 10.1886C14.4232 10.0282 14.8113 9.71247 15.8205 9.43301C16.8348 9.14838 18.1545 8.99312 19.5414 8.99312H19.5828C21.0629 8.99312 22.5119 9.1639 23.5625 9.48476C24.6493 9.81597 24.9132 10.1472 24.9287 10.2352V10.2403C24.9236 10.318 24.67 10.675 23.5211 11.0166C22.4602 11.3323 21.0577 11.5031 19.5828 11.5031C18.2114 11.5031 16.8917 11.3478 15.8774 11.0735C14.9045 10.8096 14.4853 10.5043 14.3611 10.3283C14.3611 10.2817 14.3507 10.2352 14.3352 10.1886ZM24.965 15.9744C24.965 16.0469 24.7373 16.4039 23.635 16.7455C22.5792 17.0715 21.1819 17.2527 19.6915 17.2527C18.1959 17.2527 16.8037 17.0767 15.7635 16.761C14.7751 16.4557 14.4439 16.1141 14.4439 16.0003C14.4439 15.9951 14.4439 15.9951 14.4439 15.9899L14.4387 15.6743L14.4232 14.5047C14.8372 14.7065 15.2667 14.8618 15.7118 14.9704C16.7986 15.2551 18.17 15.4103 19.5828 15.4103C21.1819 15.4103 22.6827 15.2188 23.842 14.8669C24.2197 14.7531 24.6545 14.5978 24.965 14.396V15.9744ZM24.8977 13.1074C24.8977 13.1798 24.6596 13.5317 23.547 13.8733C22.4861 14.1942 21.0784 14.3701 19.5776 14.3701C16.7623 14.3701 14.8475 13.7439 14.4025 13.2471L14.3818 11.6118C15.6031 12.2483 17.6576 12.5381 19.5828 12.5381C21.156 12.5381 22.6517 12.3518 23.8057 12.0102C24.2094 11.8964 24.5975 11.7411 24.9701 11.5393V12.8331C24.965 12.9107 24.8977 13.0039 24.8977 13.1074Z" fill="white"/>
</svg>
