<svg width="26" height="20" viewBox="0 0 26 20" fill="none" xmlns="http://www.w3.org/2000/svg">
<path d="M25.5667 11.5327H22.5333C22.5323 11.1846 22.395 10.8511 22.1514 10.605C21.9079 10.3588 21.5778 10.2201 21.2333 10.219H19.5C19.1555 10.2201 18.8255 10.3588 18.5819 10.605C18.3383 10.8511 18.201 11.1846 18.2 11.5327H16.4667V9.78115C16.8111 9.78011 17.1412 9.64137 17.3848 9.39523C17.6283 9.14909 17.7656 8.81555 17.7667 8.46746V6.71588C17.7656 6.36779 17.6283 6.03425 17.3848 5.78812C17.1412 5.54198 16.8111 5.40324 16.4667 5.4022V0.585356C16.4667 0.469219 16.421 0.357839 16.3397 0.275717C16.2585 0.193596 16.1483 0.147461 16.0333 0.147461H9.96667C9.85174 0.147461 9.74152 0.193596 9.66025 0.275717C9.57899 0.357839 9.53333 0.469219 9.53333 0.585356V5.4022C9.18887 5.40324 8.85881 5.54198 8.61523 5.78812C8.37166 6.03425 8.23436 6.36779 8.23333 6.71588V8.46746C8.23436 8.81555 8.37166 9.14909 8.61523 9.39523C8.85881 9.64137 9.18887 9.78011 9.53333 9.78115V11.5327H7.8C7.79897 11.1846 7.66168 10.8511 7.4181 10.605C7.17453 10.3588 6.84447 10.2201 6.5 10.219H4.76667C4.4222 10.2201 4.09214 10.3588 3.84856 10.605C3.60499 10.8511 3.4677 11.1846 3.46667 11.5327H0.433333C0.318406 11.5327 0.208186 11.5789 0.12692 11.661C0.0456546 11.7431 0 11.8545 0 11.9706V18.1011C0 18.2173 0.0456546 18.3287 0.12692 18.4108C0.208186 18.4929 0.318406 18.539 0.433333 18.539H3.46667C3.4677 18.8871 3.60499 19.2207 3.84856 19.4668C4.09214 19.7129 4.4222 19.8517 4.76667 19.8527H6.5C6.84447 19.8517 7.17453 19.7129 7.4181 19.4668C7.66168 19.2207 7.79897 18.8871 7.8 18.539H18.2C18.201 18.8871 18.3383 19.2207 18.5819 19.4668C18.8255 19.7129 19.1555 19.8517 19.5 19.8527H21.2333C21.5778 19.8517 21.9079 19.7129 22.1514 19.4668C22.395 19.2207 22.5323 18.8871 22.5333 18.539H25.5667C25.6816 18.539 25.7918 18.4929 25.8731 18.4108C25.9543 18.3287 26 18.2173 26 18.1011V11.9706C26 11.8545 25.9543 11.7431 25.8731 11.661C25.7918 11.5789 25.6816 11.5327 25.5667 11.5327ZM3.46667 17.6632H0.866667V12.4085H3.46667V17.6632ZM6.93333 18.539C6.93333 18.6552 6.88768 18.7666 6.80641 18.8487C6.72515 18.9308 6.61493 18.9769 6.5 18.9769H4.76667C4.65174 18.9769 4.54152 18.9308 4.46025 18.8487C4.37899 18.7666 4.33333 18.6552 4.33333 18.539V11.5327C4.33333 11.4166 4.37899 11.3052 4.46025 11.2231C4.54152 11.141 4.65174 11.0948 4.76667 11.0948H6.5C6.61493 11.0948 6.72515 11.141 6.80641 11.2231C6.88768 11.3052 6.93333 11.4166 6.93333 11.5327V18.539ZM10.4 1.02325H15.6V5.4022H10.4V1.02325ZM9.1 8.46746V6.71588C9.1 6.59974 9.14565 6.48836 9.22692 6.40624C9.30819 6.32412 9.41841 6.27799 9.53333 6.27799H16.4667C16.5816 6.27799 16.6918 6.32412 16.7731 6.40624C16.8543 6.48836 16.9 6.59974 16.9 6.71588V8.46746C16.9 8.5836 16.8543 8.69498 16.7731 8.7771C16.6918 8.85922 16.5816 8.90536 16.4667 8.90536H9.53333C9.41841 8.90536 9.30819 8.85922 9.22692 8.7771C9.14565 8.69498 9.1 8.5836 9.1 8.46746ZM18.2 17.6632H7.8V12.4085H9.96667C10.0816 12.4085 10.1918 12.3624 10.2731 12.2803C10.3543 12.1981 10.4 12.0868 10.4 11.9706V9.78115H15.6V11.9706C15.6 12.0868 15.6457 12.1981 15.7269 12.2803C15.8082 12.3624 15.9184 12.4085 16.0333 12.4085H18.2V17.6632ZM21.6667 18.539C21.6667 18.6552 21.621 18.7666 21.5397 18.8487C21.4585 18.9308 21.3483 18.9769 21.2333 18.9769H19.5C19.3851 18.9769 19.2749 18.9308 19.1936 18.8487C19.1123 18.7666 19.0667 18.6552 19.0667 18.539V11.5327C19.0667 11.4166 19.1123 11.3052 19.1936 11.2231C19.2749 11.141 19.3851 11.0948 19.5 11.0948H21.2333C21.3483 11.0948 21.4585 11.141 21.5397 11.2231C21.621 11.3052 21.6667 11.4166 21.6667 11.5327V18.539ZM25.1333 17.6632H22.5333V12.4085H25.1333V17.6632Z" fill="white"/>
</svg>
