<svg width="20" height="22" viewBox="0 0 20 22" fill="none" xmlns="http://www.w3.org/2000/svg">
<path d="M19.0681 3.9099V2.62084H8.94041V0H3.46365V2.62084H0.930603V3.9099H2.0633V20.7109H0.930603V22H19.0681V20.7109H17.9354V3.9099H19.0681ZM4.75272 1.28906H7.65135V2.62084H4.75272V1.28906ZM16.6463 16.5295H3.35241V8.0914H16.6464V16.5295H16.6463ZM3.35241 20.7109V17.8186H16.6464V20.7109H3.35241ZM16.6463 6.80234H3.35241V3.9099H16.6464V6.80234H16.6463Z" fill="white"/>
<path d="M9.99939 15.0546C11.238 15.0546 12.2456 14.0469 12.2456 12.8083C12.2456 11.4061 10.6089 9.94242 10.4223 9.78008L9.99939 9.41235L9.57645 9.78012C9.38984 9.94242 7.75311 11.4061 7.75311 12.8084C7.75316 14.0469 8.76082 15.0546 9.99939 15.0546ZM9.99776 11.1672C10.0929 11.269 10.1966 11.3859 10.3004 11.5135C10.7174 12.0257 10.9566 12.4976 10.9566 12.8084C10.9566 13.3362 10.5272 13.7656 9.99943 13.7656C9.47165 13.7656 9.04226 13.3362 9.04226 12.8084C9.04222 12.3584 9.51754 11.6833 9.99776 11.1672Z" fill="white"/>
</svg>
