<svg width="22" height="24" viewBox="0 0 22 24" fill="none" xmlns="http://www.w3.org/2000/svg">
<path d="M21.211 5.6252H12.3047V0.468751C12.3047 0.209907 12.0949 0 11.836 0H0.585938C0.327047 0 0.117188 0.209907 0.117188 0.468751V23.5312C0.117188 23.7901 0.327047 24 0.585938 24H11.836H21.211C21.4699 24 21.6797 23.7901 21.6797 23.5312V6.09395C21.6797 5.83506 21.4698 5.6252 21.211 5.6252ZM12.3047 6.5627H20.7422V18.375H12.3047V6.5627ZM4.8047 23.0625V19.3125H7.6172V23.0625H4.8047ZM8.08595 18.375H4.33595C4.07705 18.375 3.8672 18.5849 3.8672 18.8437V23.0625H1.05469V0.937502H11.3672V23.0625H8.5547V18.8437C8.5547 18.5849 8.3448 18.375 8.08595 18.375ZM12.3047 23.0625V19.3125H20.7422V23.0625H12.3047Z" fill="white"/>
<path d="M5.74219 3.75H6.67955C6.93844 3.75 7.1483 3.54014 7.1483 3.28125V2.34375C7.1483 2.08486 6.93844 1.875 6.67955 1.875H5.74219C5.4833 1.875 5.27344 2.08486 5.27344 2.34375V3.28125C5.27344 3.54014 5.4833 3.75 5.74219 3.75Z" fill="white"/>
<path d="M5.74219 7.03125H6.67955C6.93844 7.03125 7.1483 6.82139 7.1483 6.5625V5.625C7.1483 5.36611 6.93844 5.15625 6.67955 5.15625H5.74219C5.4833 5.15625 5.27344 5.36611 5.27344 5.625V6.5625C5.27344 6.82139 5.4833 7.03125 5.74219 7.03125Z" fill="white"/>
<path d="M5.74219 10.3125H6.67955C6.93844 10.3125 7.1483 10.1026 7.1483 9.84375V8.90625C7.1483 8.64736 6.93844 8.4375 6.67955 8.4375H5.74219C5.4833 8.4375 5.27344 8.64736 5.27344 8.90625V9.84375C5.27344 10.1026 5.4833 10.3125 5.74219 10.3125Z" fill="white"/>
<path d="M5.74219 13.5938H6.67955C6.93844 13.5938 7.1483 13.3839 7.1483 13.125V12.1875C7.1483 11.9286 6.93844 11.7188 6.67955 11.7188H5.74219C5.4833 11.7188 5.27344 11.9286 5.27344 12.1875V13.125C5.27344 13.3839 5.4833 13.5938 5.74219 13.5938Z" fill="white"/>
<path d="M5.74219 16.875H6.67955C6.93844 16.875 7.1483 16.6651 7.1483 16.4063V15.4688C7.1483 15.2099 6.93844 15 6.67955 15H5.74219C5.4833 15 5.27344 15.2099 5.27344 15.4688V16.4063C5.27344 16.6651 5.4833 16.875 5.74219 16.875Z" fill="white"/>
<path d="M2.46094 3.75H3.3983C3.65719 3.75 3.86705 3.54014 3.86705 3.28125V2.34375C3.86705 2.08486 3.65719 1.875 3.3983 1.875H2.46094C2.20205 1.875 1.99219 2.08486 1.99219 2.34375V3.28125C1.99219 3.54014 2.20205 3.75 2.46094 3.75Z" fill="white"/>
<path d="M2.46094 7.03125H3.3983C3.65719 7.03125 3.86705 6.82139 3.86705 6.5625V5.625C3.86705 5.36611 3.65719 5.15625 3.3983 5.15625H2.46094C2.20205 5.15625 1.99219 5.36611 1.99219 5.625V6.5625C1.99219 6.82139 2.20205 7.03125 2.46094 7.03125Z" fill="white"/>
<path d="M2.46094 10.3125H3.3983C3.65719 10.3125 3.86705 10.1026 3.86705 9.84375V8.90625C3.86705 8.64736 3.65719 8.4375 3.3983 8.4375H2.46094C2.20205 8.4375 1.99219 8.64736 1.99219 8.90625V9.84375C1.99219 10.1026 2.20205 10.3125 2.46094 10.3125Z" fill="white"/>
<path d="M2.46094 13.5938H3.3983C3.65719 13.5938 3.86705 13.3839 3.86705 13.125V12.1875C3.86705 11.9286 3.65719 11.7188 3.3983 11.7188H2.46094C2.20205 11.7188 1.99219 11.9286 1.99219 12.1875V13.125C1.99219 13.3839 2.20205 13.5938 2.46094 13.5938Z" fill="white"/>
<path d="M2.46094 16.875H3.3983C3.65719 16.875 3.86705 16.6651 3.86705 16.4063V15.4688C3.86705 15.2099 3.65719 15 3.3983 15H2.46094C2.20205 15 1.99219 15.2099 1.99219 15.4688V16.4063C1.99219 16.6651 2.20205 16.875 2.46094 16.875Z" fill="white"/>
<path d="M9.9608 1.875H9.02344C8.76455 1.875 8.55469 2.08486 8.55469 2.34375V3.28125C8.55469 3.54014 8.76455 3.75 9.02344 3.75H9.9608C10.2197 3.75 10.4296 3.54014 10.4296 3.28125V2.34375C10.4296 2.08486 10.2197 1.875 9.9608 1.875Z" fill="white"/>
<path d="M9.9608 5.15625H9.02344C8.76455 5.15625 8.55469 5.36611 8.55469 5.625V6.5625C8.55469 6.82139 8.76455 7.03125 9.02344 7.03125H9.9608C10.2197 7.03125 10.4296 6.82139 10.4296 6.5625V5.625C10.4296 5.36616 10.2197 5.15625 9.9608 5.15625Z" fill="white"/>
<path d="M9.9608 8.4375H9.02344C8.76455 8.4375 8.55469 8.64736 8.55469 8.90625V9.84375C8.55469 10.1026 8.76455 10.3125 9.02344 10.3125H9.9608C10.2197 10.3125 10.4296 10.1026 10.4296 9.84375V8.90625C10.4296 8.64741 10.2197 8.4375 9.9608 8.4375Z" fill="white"/>
<path d="M9.9608 11.7188H9.02344C8.76455 11.7188 8.55469 11.9286 8.55469 12.1875V13.125C8.55469 13.3839 8.76455 13.5938 9.02344 13.5938H9.9608C10.2197 13.5938 10.4296 13.3839 10.4296 13.125V12.1875C10.4296 11.9287 10.2197 11.7188 9.9608 11.7188Z" fill="white"/>
<path d="M9.9608 15H9.02344C8.76455 15 8.55469 15.2099 8.55469 15.4688V16.4063C8.55469 16.6651 8.76455 16.875 9.02344 16.875H9.9608C10.2197 16.875 10.4296 16.6651 10.4296 16.4063V15.4688C10.4296 15.2099 10.2197 15 9.9608 15Z" fill="white"/>
<path d="M18.6327 8.4375H17.6953C17.4364 8.4375 17.2266 8.64736 17.2266 8.90625V9.84375C17.2266 10.1026 17.4364 10.3125 17.6953 10.3125H18.6327C18.8916 10.3125 19.1014 10.1026 19.1014 9.84375V8.90625C19.1014 8.64741 18.8915 8.4375 18.6327 8.4375Z" fill="white"/>
<path d="M18.6327 11.7188H17.6953C17.4364 11.7188 17.2266 11.9286 17.2266 12.1875V13.125C17.2266 13.3839 17.4364 13.5938 17.6953 13.5938H18.6327C18.8916 13.5938 19.1014 13.3839 19.1014 13.125V12.1875C19.1014 11.9287 18.8915 11.7188 18.6327 11.7188Z" fill="white"/>
<path d="M18.6327 15H17.6953C17.4364 15 17.2266 15.2099 17.2266 15.4688V16.4063C17.2266 16.6651 17.4364 16.875 17.6953 16.875H18.6327C18.8916 16.875 19.1014 16.6651 19.1014 16.4063V15.4688C19.1014 15.2099 18.8915 15 18.6327 15Z" fill="white"/>
<path d="M15.3514 8.4375H14.4141C14.1552 8.4375 13.9453 8.64736 13.9453 8.90625V9.84375C13.9453 10.1026 14.1552 10.3125 14.4141 10.3125H15.3514C15.6103 10.3125 15.8202 10.1026 15.8202 9.84375V8.90625C15.8202 8.64741 15.6103 8.4375 15.3514 8.4375Z" fill="white"/>
<path d="M15.3514 11.7188H14.4141C14.1552 11.7188 13.9453 11.9286 13.9453 12.1875V13.125C13.9453 13.3839 14.1552 13.5938 14.4141 13.5938H15.3514C15.6103 13.5938 15.8202 13.3839 15.8202 13.125V12.1875C15.8202 11.9287 15.6103 11.7188 15.3514 11.7188Z" fill="white"/>
<path d="M15.3514 15H14.4141C14.1552 15 13.9453 15.2099 13.9453 15.4688V16.4063C13.9453 16.6651 14.1552 16.875 14.4141 16.875H15.3514C15.6103 16.875 15.8202 16.6651 15.8202 16.4063V15.4688C15.8202 15.2099 15.6103 15 15.3514 15Z" fill="white"/>
</svg>
