<svg width="25" height="27" viewBox="0 0 25 27" fill="none" xmlns="http://www.w3.org/2000/svg">
<path d="M20.7433 13.919C20.9673 14.6454 21.6449 15.1748 22.4438 15.1748C23.4248 15.1748 24.2229 14.3767 24.2229 13.3957C24.2229 12.4147 23.4248 11.6166 22.4438 11.6166C21.6448 11.6166 20.9673 12.146 20.7433 12.8724H17.5234V8.79093C17.5234 8.50198 17.2892 8.26766 17.0002 8.26766H16.1629V5.12648H19.0944C19.3834 5.12648 19.6177 4.89216 19.6177 4.60321C19.6177 4.31426 19.3834 4.07994 19.0944 4.07994H15.6397C15.3507 4.07994 15.1164 4.31426 15.1164 4.60321V8.26766H12.9187V5.04783C13.6451 4.82382 14.1745 4.14634 14.1745 3.34736C14.1745 2.36633 13.3764 1.56824 12.3954 1.56824C11.4144 1.56824 10.6163 2.36633 10.6163 3.34736C10.6163 4.14634 11.1457 4.82387 11.8721 5.04783V8.26766H7.79062C7.50162 8.26766 7.26735 8.50198 7.26735 8.79093V9.62817H4.12611V3.48006C4.85335 3.25657 5.38358 2.57867 5.38358 1.77912C5.38358 0.798091 4.58548 0 3.60446 0C2.62343 0 1.82534 0.798091 1.82534 1.77912C1.82534 2.57752 2.354 3.25463 3.07957 3.47912V10.1514C3.07957 10.4404 3.31383 10.6747 3.60284 10.6747H7.26735V12.8724H4.04746C3.82345 12.146 3.14592 11.6166 2.34699 11.6166C1.36596 11.6166 0.567871 12.4147 0.567871 13.3957C0.567871 14.3767 1.36596 15.1748 2.34699 15.1748C3.14597 15.1748 3.8235 14.6454 4.04746 13.919H7.26735V18.0005C7.26735 18.2894 7.50162 18.5238 7.79062 18.5238H8.62785V21.6649H5.69639C5.40738 21.6649 5.17312 21.8993 5.17312 22.1882C5.17312 22.4772 5.40738 22.7115 5.69639 22.7115H9.15112C9.44012 22.7115 9.67439 22.4772 9.67439 22.1882V18.5238H11.8721V21.7436C11.1457 21.9676 10.6163 22.6451 10.6163 23.4441C10.6163 24.4251 11.4144 25.2232 12.3954 25.2232C13.3764 25.2232 14.1745 24.4251 14.1745 23.4441C14.1745 22.6451 13.6451 21.9676 12.9187 21.7436V18.5238H17.0002C17.2892 18.5238 17.5234 18.2894 17.5234 18.0005V17.1633H20.6647V23.3114C19.9374 23.5348 19.4072 24.2127 19.4072 25.0123C19.4072 25.9933 20.2053 26.7914 21.1863 26.7914C22.1674 26.7914 22.9654 25.9933 22.9654 25.0123C22.9654 24.2139 22.4368 23.5368 21.7112 23.3123V16.64C21.7112 16.351 21.477 16.1167 21.188 16.1167H17.5234V13.919H20.7433ZM22.4438 12.6631C22.8478 12.6631 23.1764 12.9917 23.1764 13.3957C23.1764 13.7997 22.8477 14.1283 22.4438 14.1283C22.0398 14.1283 21.7112 13.7997 21.7112 13.3957C21.7112 12.9917 22.0398 12.6631 22.4438 12.6631ZM3.60446 2.5117C3.20049 2.5117 2.87188 2.18308 2.87188 1.77912C2.87188 1.37515 3.20049 1.04654 3.60446 1.04654C4.00842 1.04654 4.33704 1.37515 4.33704 1.77912C4.33704 2.18308 4.00842 2.5117 3.60446 2.5117ZM2.34699 14.1283C1.94302 14.1283 1.61441 13.7997 1.61441 13.3957C1.61441 12.9917 1.94302 12.6631 2.34699 12.6631C2.75095 12.6631 3.07957 12.9917 3.07957 13.3957C3.07957 13.7997 2.75095 14.1283 2.34699 14.1283ZM11.6628 3.34736C11.6628 2.94339 11.9914 2.61478 12.3954 2.61478C12.7994 2.61478 13.128 2.94339 13.128 3.34736C13.128 3.75132 12.7994 4.07994 12.3954 4.07994C11.9914 4.07994 11.6628 3.75132 11.6628 3.34736ZM13.128 23.4441C13.128 23.848 12.7994 24.1766 12.3954 24.1766C11.9914 24.1766 11.6628 23.848 11.6628 23.4441C11.6628 23.0401 11.9914 22.7115 12.3954 22.7115C12.7994 22.7115 13.128 23.0401 13.128 23.4441ZM16.4769 17.4772H8.31389V9.3142H16.4769V17.4772ZM21.1863 24.2797C21.5903 24.2797 21.9189 24.6083 21.9189 25.0123C21.9189 25.4163 21.5903 25.7449 21.1863 25.7449C20.7824 25.7449 20.4538 25.4163 20.4538 25.0123C20.4538 24.6083 20.7824 24.2797 21.1863 24.2797Z" fill="#029E7E"/>
</svg>
