<svg width="65" height="88" viewBox="0 0 65 88" fill="none" xmlns="http://www.w3.org/2000/svg">
<path d="M46.4998 44.6L64.4998 14.1H46.4998V11.4L46.3998 11.3V2.90005C46.3998 1.50005 45.1998 0.300049 43.7998 0.300049H20.6998C19.2998 0.300049 18.0998 1.50005 18.0998 2.90005V11.1L17.9998 11.3V14.2H0.299805L17.9998 44.3V46.4001H0.299805L18.1998 76.7V85C18.1998 86.4 19.3998 87.6 20.7998 87.6H43.9998C45.3998 87.6 46.5998 86.4 46.5998 85V76.8L64.5998 46.3H46.5998V44.6H46.4998Z" fill="url(#paint0_linear_375_770)"/>
<path d="M62.4004 18.3C62.3004 18.3 62.2004 18.3 62.1004 18.2L46.9004 8.50002C46.7004 8.40002 46.6004 8.00002 46.7004 7.80002C46.8004 7.60002 47.2004 7.50002 47.4004 7.60002L62.7004 17.2C62.9004 17.3 63.0004 17.7 62.9004 17.9C62.7004 18.2 62.6004 18.3 62.4004 18.3Z" fill="white"/>
<path d="M64.7002 28.7C64.6002 28.7 64.5002 28.7 64.4002 28.6L39.2002 12.7C39.0002 12.6 38.9002 12.2 39.0002 12C39.1002 11.8 39.5002 11.7 39.7002 11.8L65.0002 27.8C65.2002 27.9 65.3002 28.3 65.2002 28.5C65.1002 28.7 64.9002 28.7 64.7002 28.7Z" fill="white"/>
<path d="M62.7 37.1999C62.6 37.1999 62.5 37.1999 62.4 37.0999L41.5 23.8999C41.3 23.7999 41.2 23.3999 41.3 23.1999C41.4 22.9999 41.8 22.8999 42 22.9999L62.9 36.1999C63.1 36.2999 63.2 36.6999 63.1 36.8999C63 37.0999 62.8 37.1999 62.7 37.1999Z" fill="white"/>
<path d="M51.4002 39.7001C51.3002 39.7001 51.2002 39.7001 51.1002 39.6001L44.2002 35.3001C44.0002 35.2001 43.9002 34.8001 44.0002 34.6001C44.1002 34.4001 44.5002 34.3001 44.7002 34.4001L51.6002 38.7001C51.8002 38.8001 51.9002 39.2001 51.8002 39.4001C51.7002 39.7001 51.5002 39.7001 51.4002 39.7001Z" fill="white"/>
<path d="M54.0002 39.1002C53.9002 39.1002 53.8002 39.1002 53.7002 39.0002C53.5002 38.9002 53.4002 38.5002 53.5002 38.3002L63.1002 23.2002C63.2002 23.0002 63.6002 22.9002 63.8002 23.0002C64.0002 23.1002 64.1002 23.5002 64.0002 23.7002L54.4002 38.8002C54.4002 39.0002 54.2002 39.1002 54.0002 39.1002Z" fill="white"/>
<path d="M45.3005 38.7001C45.2005 38.7001 45.1005 38.7001 45.0005 38.6001C44.8005 38.5001 44.7005 38.1001 44.8005 37.9001L60.8005 12.6001C60.9005 12.4001 61.3005 12.3001 61.5005 12.4001C61.7005 12.5001 61.8005 12.9001 61.7005 13.1001L45.7005 38.4001C45.7005 38.6001 45.5005 38.7001 45.3005 38.7001Z" fill="white"/>
<path d="M42.6003 27.6001C42.5003 27.6001 42.4003 27.6001 42.3003 27.5001C42.1003 27.4001 42.0003 27.0001 42.1003 26.8001L55.4003 5.90012C55.5003 5.70012 55.9003 5.60012 56.1003 5.70012C56.3003 5.80012 56.4003 6.20012 56.3003 6.40012L43.0003 27.4001C42.9003 27.5001 42.7003 27.6001 42.6003 27.6001Z" fill="white"/>
<path d="M40.1003 16.1002C40.0003 16.1002 39.9003 16.1002 39.8003 16.0002C39.6003 15.9002 39.5003 15.5002 39.6003 15.3002L44.0003 8.50022C44.1003 8.30022 44.5003 8.20022 44.7003 8.30022C45.0003 8.50022 45.0003 8.80022 44.9003 9.00022L40.6003 15.9002C40.5003 16.0002 40.3003 16.1002 40.1003 16.1002Z" fill="white"/>
<path d="M62.4003 51.0001C62.3003 51.0001 62.2003 51.0001 62.1003 50.9001L46.8003 41.3001C46.6003 41.2001 46.5003 40.8001 46.6003 40.6001C46.7003 40.4001 47.1003 40.3001 47.3003 40.4001L62.6003 50.0001C62.8003 50.1001 62.9003 50.5001 62.8003 50.7001C62.7003 50.9001 62.6003 51.0001 62.4003 51.0001Z" fill="white"/>
<path d="M64.7002 61.5C64.6002 61.5 64.5002 61.5 64.4002 61.4L39.2002 45.5C39.0002 45.4 38.9002 45 39.0002 44.8C39.1002 44.6 39.5002 44.5 39.7002 44.6L65.0002 60.6C65.2002 60.7 65.3002 61.1 65.2002 61.3C65.1002 61.4 64.9002 61.5 64.7002 61.5Z" fill="white"/>
<path d="M62.7 69.9001C62.6 69.9001 62.5 69.9001 62.4 69.8001L41.5 56.6001C41.3 56.5001 41.2 56.1001 41.3 55.9001C41.4 55.7001 41.8 55.6001 42 55.7001L62.9 69.0001C63.1 69.1001 63.2 69.5001 63.1 69.7001C63 69.8001 62.8 69.9001 62.7 69.9001Z" fill="white"/>
<path d="M51.4002 72.5001C51.3002 72.5001 51.2002 72.5001 51.1002 72.4001L44.2002 68.1001C44.0002 68.0001 43.9002 67.6001 44.0002 67.4001C44.1002 67.2001 44.5002 67.1001 44.7002 67.2001L51.6002 71.5001C51.8002 71.6001 51.9002 72.0001 51.8002 72.2001C51.7002 72.4001 51.5002 72.5001 51.4002 72.5001Z" fill="white"/>
<path d="M54.0002 71.9C53.9002 71.9 53.8002 71.9 53.7002 71.8C53.5002 71.7 53.4002 71.3 53.5002 71.1L63.2002 56C63.3002 55.8 63.7002 55.7 63.9002 55.8C64.1002 55.9 64.2002 56.3 64.1002 56.5L54.5002 71.6C54.4002 71.8 54.2002 71.9 54.0002 71.9Z" fill="white"/>
<path d="M45.3005 71.4C45.2005 71.4 45.1005 71.4 45.0005 71.3C44.8005 71.2 44.7005 70.8 44.8005 70.6L60.8005 45.3C60.9005 45.1 61.3005 45 61.5005 45.1C61.7005 45.2 61.8005 45.6 61.7005 45.8L45.7005 71.1C45.7005 71.3 45.5005 71.4 45.3005 71.4Z" fill="white"/>
<path d="M42.6003 60.3001C42.5003 60.3001 42.4003 60.3001 42.3003 60.2001C42.1003 60.1001 42.0003 59.7001 42.1003 59.5001L55.3003 38.6001C55.4003 38.4001 55.8003 38.3001 56.0003 38.4001C56.2003 38.5001 56.3003 38.9001 56.2003 39.1001L43.0003 60.1001C42.9003 60.3001 42.7003 60.3001 42.6003 60.3001Z" fill="white"/>
<path d="M40.1003 48.9002C40.0003 48.9002 39.9003 48.9002 39.8003 48.8002C39.6003 48.7002 39.5003 48.3002 39.6003 48.1002L43.9003 41.2002C44.0003 41.0002 44.4003 40.9002 44.6003 41.0002C44.8003 41.1002 44.9003 41.5002 44.8003 41.7002L40.5003 48.6002C40.5003 48.8002 40.3003 48.9002 40.1003 48.9002Z" fill="white"/>
<path d="M2.49985 51C2.29985 51 2.19985 50.9 2.09985 50.8C1.99985 50.5 1.99985 50.2 2.29985 50.1L17.5998 40.5C17.7998 40.4 18.0998 40.4 18.2998 40.7C18.3998 40.9 18.3998 41.2 18.0998 41.4L2.79985 50.9C2.69985 51 2.59985 51 2.49985 51Z" fill="white"/>
<path d="M0.200042 61.4999C4.20213e-05 61.4999 -0.099958 61.3999 -0.199958 61.2999C-0.299958 60.9999 -0.299958 60.6999 4.19915e-05 60.5999L25.2 44.6999C25.4 44.5999 25.7 44.5999 25.9 44.8999C26 45.0999 26 45.3999 25.7 45.5999L0.500042 61.3999C0.400042 61.4999 0.300042 61.4999 0.200042 61.4999Z" fill="white"/>
<path d="M2.30003 69.9C2.10003 69.9 2.00003 69.8 1.90003 69.7C1.70003 69.4 1.80003 69.1 2.00003 69L22.9 55.8C23.1 55.7 23.4 55.7 23.6 56C23.7 56.2 23.7 56.5 23.4 56.7L2.60003 69.8C2.50003 69.9 2.40003 69.9 2.30003 69.9Z" fill="white"/>
<path d="M13.5999 72.5C13.3999 72.5 13.2999 72.4 13.1999 72.3C13.0999 72.1 13.0999 71.8 13.3999 71.6L20.2999 67.3C20.4999 67.2 20.7999 67.2 20.9999 67.5C21.0999 67.7 21.0999 68 20.7999 68.2L13.8999 72.5C13.7999 72.5 13.6999 72.5 13.5999 72.5Z" fill="white"/>
<path d="M10.9001 71.9C10.7001 71.9 10.6001 71.8 10.5001 71.7L0.90014 56.5C0.80014 56.3 0.80014 56 1.10014 55.8C1.30014 55.7 1.60014 55.7 1.80014 56L11.4001 71.1C11.5001 71.3 11.5001 71.6 11.2001 71.8C11.1001 71.9 11.0001 71.9 10.9001 71.9Z" fill="white"/>
<path d="M19.5999 71.3999C19.3999 71.3999 19.2999 71.2999 19.1999 71.1999L3.19994 45.8999C3.09994 45.6999 3.09994 45.3999 3.39994 45.1999C3.59994 45.0999 3.89994 45.0999 4.09994 45.3999L20.0999 70.6999C20.1999 70.8999 20.1999 71.1999 19.8999 71.3999C19.7999 71.3999 19.6999 71.3999 19.5999 71.3999Z" fill="white"/>
<path d="M22.3999 60.3C22.1999 60.3 22.0999 60.2 21.9999 60.1L8.69994 39.2C8.59994 39 8.59994 38.7 8.89994 38.5C9.09994 38.4 9.39994 38.4 9.59994 38.7L22.7999 59.6C22.8999 59.8 22.8999 60.1 22.5999 60.3C22.5999 60.3 22.4999 60.3 22.3999 60.3Z" fill="white"/>
<path d="M24.8003 48.9001C24.6003 48.9001 24.5003 48.8001 24.4003 48.7001L20.1003 41.8001C20.0003 41.6001 20.0003 41.3001 20.3003 41.1001C20.5003 41.0001 20.8003 41.0001 21.0003 41.3001L25.3003 48.2001C25.4003 48.4001 25.4003 48.7001 25.1003 48.9001C25.0003 48.8001 24.9003 48.9001 24.8003 48.9001Z" fill="white"/>
<path d="M2.49985 18.2999C2.29985 18.2999 2.19985 18.1999 2.09985 18.0999C1.99985 17.7999 1.99985 17.4999 2.29985 17.2999L17.5998 7.69994C17.7998 7.59994 18.0998 7.59994 18.2998 7.89994C18.3998 8.09994 18.3998 8.39994 18.0998 8.59994L2.79985 18.1999C2.69985 18.1999 2.59985 18.2999 2.49985 18.2999Z" fill="white"/>
<path d="M0.200042 28.6999C4.20213e-05 28.6999 -0.099958 28.5999 -0.199958 28.4999C-0.299958 28.2999 -0.299958 27.9999 4.19915e-05 27.7999L25.2 11.8999C25.4 11.7999 25.7 11.7999 25.9 12.0999C26 12.2999 26 12.5999 25.7 12.7999L0.500042 28.6999C0.400042 28.6999 0.300042 28.6999 0.200042 28.6999Z" fill="white"/>
<path d="M2.30014 37.2C2.10014 37.2 2.00014 37.1 1.90014 37C1.80014 36.8 1.80014 36.5 2.10014 36.3L22.9001 23C23.1001 22.9 23.4001 22.9 23.6001 23.2C23.7001 23.4 23.7001 23.7 23.4001 23.9L2.60014 37.1C2.50014 37.1 2.40014 37.2 2.30014 37.2Z" fill="white"/>
<path d="M13.5999 39.7C13.3999 39.7 13.2999 39.6 13.1999 39.5C13.0999 39.3 13.0999 39 13.3999 38.8L20.2999 34.5C20.4999 34.4 20.7999 34.4 20.9999 34.7C21.0999 34.9 21.0999 35.2 20.7999 35.4L13.8999 39.7C13.7999 39.7 13.6999 39.7 13.5999 39.7Z" fill="white"/>
<path d="M10.9001 39.0998C10.7001 39.0998 10.6001 38.9998 10.5001 38.8998L0.90014 23.7998C0.80014 23.5998 0.80014 23.2998 1.10014 23.0998C1.30014 22.9998 1.60014 22.9998 1.80014 23.2998L11.4001 38.3998C11.5001 38.5998 11.5001 38.8998 11.2001 39.0998C11.1001 39.0998 11.0001 39.0998 10.9001 39.0998Z" fill="white"/>
<path d="M19.5999 38.7C19.3999 38.7 19.2999 38.6 19.1999 38.5L3.19994 13.2C3.09994 13 3.09994 12.7 3.39994 12.5C3.59994 12.4 3.89994 12.4 4.09994 12.7L20.0999 38C20.1999 38.2 20.1999 38.5 19.8999 38.7C19.7999 38.6 19.6999 38.7 19.5999 38.7Z" fill="white"/>
<path d="M22.4004 27.5999C22.2004 27.5999 22.1004 27.4999 22.0004 27.3999L8.70036 6.39994C8.60036 6.19994 8.70036 5.89994 8.90036 5.69994C9.10036 5.59994 9.40036 5.59994 9.60036 5.89994L22.8004 26.7999C22.9004 26.9999 22.9004 27.2999 22.6004 27.4999C22.6004 27.5999 22.5004 27.5999 22.4004 27.5999Z" fill="white"/>
<path d="M24.8003 16.1C24.6003 16.1 24.5003 16 24.4003 15.9L20.1003 9.00004C20.0003 8.80004 20.0003 8.50004 20.3003 8.30004C20.5003 8.20004 20.8003 8.20004 21.0003 8.50004L25.3003 15.4C25.4003 15.6 25.4003 15.9 25.1003 16.1C25.0003 16.1 24.9003 16.1 24.8003 16.1Z" fill="white"/>
<path d="M43.5001 87.7H20.9001C19.3001 87.7 18.1001 86.4 18.1001 84.9V2.9C18.0001 1.3 19.3001 0 20.9001 0H43.6001C45.2001 0 46.4001 1.3 46.4001 2.8V84.8C46.4001 86.4 45.1001 87.7 43.5001 87.7Z" fill="url(#paint1_linear_375_770)"/>
<defs>
<linearGradient id="paint0_linear_375_770" x1="32.4062" y1="-62.1228" x2="32.4062" y2="87.5673" gradientUnits="userSpaceOnUse">
<stop stop-color="#009378"/>
<stop offset="1" stop-color="#4EB066"/>
</linearGradient>
<linearGradient id="paint1_linear_375_770" x1="32.2047" y1="-62.8336" x2="32.2047" y2="87.6645" gradientUnits="userSpaceOnUse">
<stop stop-color="#009378"/>
<stop offset="1" stop-color="#4EB066"/>
</linearGradient>
</defs>
</svg>
