<svg width="159" height="51" viewBox="0 0 159 51" fill="none" xmlns="http://www.w3.org/2000/svg">
<path d="M158.1 23.9001L142.8 4.80015C142.6 4.60015 142.3 4.40015 142 4.40015H122.6C122.1 4.40015 121.8 4.70015 121.7 5.10015H121.6V25.3001V33.0001V33.1001V39.1001H31.2998C30.6998 39.1001 30.2998 39.5001 30.2998 40.1001C30.2998 40.7001 30.6998 41.1001 31.2998 41.1001H46.4998C46.6998 46.4001 51.6998 50.7001 57.7998 50.7001C63.8998 50.7001 68.8998 46.4001 69.0998 41.1001H121.8C122.2 46.0001 127.8 50.8001 133.5 50.8001C139.2 50.8001 143.4 46.0001 143.8 41.1001H157.4C158 41.1001 158.4 40.7001 158.4 40.1001V24.5001C158.3 24.3001 158.2 24.1001 158.1 23.9001Z" fill="url(#paint0_linear_375_820)"/>
<path d="M76.5 0.100098H44.5C36.7 0.100098 30.3 6.4001 30.3 14.3001V17.0001H16.7C11.5 17.0001 7.2 21.3001 7.2 26.5001V42.5001H1C0.4 42.5001 0 42.9001 0 43.5001C0 44.1001 0.4 44.5001 1 44.5001H7.2H9.2H16.4C17 44.5001 17.4 44.1001 17.4 43.5001C17.4 42.9001 17 42.5001 16.4 42.5001H9.2V26.5001C9.2 22.4001 12.6 19.0001 16.7 19.0001H30.4V20.3001C30.4 28.1001 36.7 34.5001 44.6 34.5001H76.6C84.4 34.5001 90.8 28.2001 90.8 20.3001V14.3001C90.7 6.4001 84.3 0.100098 76.5 0.100098Z" fill="url(#paint1_linear_375_820)"/>
<path d="M106.2 33.9001C112.551 33.9001 117.7 28.7514 117.7 22.4001C117.7 16.0489 112.551 10.9001 106.2 10.9001C99.8489 10.9001 94.7002 16.0489 94.7002 22.4001C94.7002 28.7514 99.8489 33.9001 106.2 33.9001Z" fill="url(#paint2_linear_375_820)"/>
<defs>
<linearGradient id="paint0_linear_375_820" x1="94.2962" y1="4.45285" x2="94.2962" y2="50.6957" gradientUnits="userSpaceOnUse">
<stop stop-color="#009378"/>
<stop offset="1" stop-color="#4EB066"/>
</linearGradient>
<linearGradient id="paint1_linear_375_820" x1="45.3334" y1="0.0754388" x2="45.3334" y2="44.4089" gradientUnits="userSpaceOnUse">
<stop stop-color="#009378"/>
<stop offset="1" stop-color="#4EB066"/>
</linearGradient>
<linearGradient id="paint2_linear_375_820" x1="106.167" y1="10.9088" x2="106.167" y2="33.9088" gradientUnits="userSpaceOnUse">
<stop stop-color="#009378"/>
<stop offset="1" stop-color="#4EB066"/>
</linearGradient>
</defs>
</svg>
