<svg width="159" height="51" viewBox="0 0 159 51" fill="none" xmlns="http://www.w3.org/2000/svg">
<path d="M44.4998 34.4H76.4998C84.2998 34.4 90.6998 28.1 90.6998 20.2V14.2C90.6998 6.4 84.3998 0 76.4998 0H44.4998C36.6998 0 30.2998 6.3 30.2998 14.2V20.2C30.2998 28.1 36.6998 34.4 44.4998 34.4Z" fill="url(#paint0_linear_375_830)"/>
<path d="M158.1 23.8999L142.8 4.7999C142.6 4.5999 142.3 4.3999 142 4.3999H122.6C122.1 4.3999 121.8 4.6999 121.7 5.0999H121.6V25.2999V32.9999V33.0999V39.0999H31.2998C30.6998 39.0999 30.2998 39.4999 30.2998 40.0999C30.2998 40.6999 30.6998 41.0999 31.2998 41.0999H46.4998C46.6998 46.3999 51.6998 50.6999 57.7998 50.6999C63.8998 50.6999 68.8998 46.3999 69.0998 41.0999H121.8C122.2 46.2999 127.1 50.2999 133 50.2999C139 50.2999 143.8 46.1999 144.2 41.0999H157.3C157.9 41.0999 158.3 40.6999 158.3 40.0999V24.4999C158.3 24.2999 158.2 24.0999 158.1 23.8999Z" fill="url(#paint1_linear_375_830)"/>
<path d="M106.2 33.8999C112.551 33.8999 117.7 28.7512 117.7 22.3999C117.7 16.0486 112.551 10.8999 106.2 10.8999C99.8489 10.8999 94.7002 16.0486 94.7002 22.3999C94.7002 28.7512 99.8489 33.8999 106.2 33.8999Z" fill="url(#paint2_linear_375_830)"/>
<path d="M7.2 26.3999V42.3999H1C0.4 42.3999 0 42.7999 0 43.3999C0 43.9999 0.4 44.3999 1 44.3999H7.2H9.2H16.4C17 44.3999 17.4 43.9999 17.4 43.3999C17.4 42.7999 17 42.3999 16.4 42.3999H9.2V26.3999C9.2 22.2999 12.6 18.8999 16.7 18.8999H30.2V16.8999H16.7C11.4 16.8999 7.2 21.1999 7.2 26.3999Z" fill="url(#paint3_linear_375_830)"/>
<path d="M144 22.5999H129.2C129.1 22.5999 128.9 22.4999 128.9 22.2999V19.1999C128.9 19.0999 129 18.8999 129.2 18.8999H144C144.1 18.8999 144.3 18.9999 144.3 19.1999V22.2999C144.3 22.4999 144.1 22.5999 144 22.5999Z" fill="white"/>
<path d="M62.3002 22.1999C62.3002 22.7999 62.1002 23.1999 61.8002 23.5999C61.5002 23.9999 61.0002 24.1999 60.5002 24.1999C59.9002 24.1999 59.3002 23.7999 58.7002 23.0999L52.1002 14.8999V22.3999C52.1002 22.9999 51.9002 23.3999 51.6002 23.6999C51.3002 23.9999 50.8002 24.1999 50.3002 24.1999C49.8002 24.1999 49.3002 23.9999 49.1002 23.6999C48.8002 23.2999 48.7002 22.8999 48.7002 22.2999V10.1999C48.7002 9.6999 48.9002 9.1999 49.2002 8.8999C49.5002 8.4999 49.9002 8.3999 50.4002 8.3999C50.8002 8.3999 51.1002 8.4999 51.3002 8.6999C51.7002 8.8999 52.0002 9.1999 52.2002 9.4999L58.8002 17.6999V10.2999C58.8002 9.7999 59.0002 9.2999 59.3002 8.9999C59.6002 8.6999 60.0002 8.4999 60.5002 8.4999C61.7002 8.4999 62.3002 9.0999 62.3002 10.2999V22.1999Z" fill="white"/>
<path d="M71.3001 23.3C71.3001 23.6 71.2001 23.8 71.0001 24C70.8001 24.2 70.6001 24.3 70.3001 24.3H66.3001C65.5001 24.3 65.1001 24 65.1001 23.4C65.1001 23.1 65.3001 22.7 65.6001 22.4C65.8001 22.2 66.1001 21.9 66.4001 21.5C67.1001 20.7 67.7001 20.1 67.9001 19.8C68.5001 19 68.9001 18.3 68.9001 17.9C68.9001 17.4 68.6001 17.1 68.1001 17.1C67.8001 17.1 67.5001 17.3 67.4001 17.6C67.3001 17.9 67.1001 18.2 67.0001 18.5C66.8001 18.8 66.6001 19 66.3001 19C66.0001 19 65.8001 18.9 65.6001 18.7C65.4001 18.5 65.3001 18.3 65.3001 18C65.3001 17.2 65.6001 16.5 66.2001 16C66.8001 15.5 67.5001 15.2 68.3001 15.2C69.1001 15.2 69.8001 15.5 70.3001 16C70.9001 16.5 71.1001 17.1 71.1001 17.9C71.1001 18.5 70.9001 19.1 70.6001 19.6C70.4001 20 70.0001 20.4 69.5001 21C68.9001 21.6 68.5001 22.1 68.3001 22.4H70.4001C70.7001 22.4 70.9001 22.5 71.1001 22.7C71.2001 22.8 71.3001 23 71.3001 23.3Z" fill="white"/>
<defs>
<linearGradient id="paint0_linear_375_830" x1="60.5" y1="0.0754089" x2="60.5" y2="34.4088" gradientUnits="userSpaceOnUse">
<stop stop-color="#009378"/>
<stop offset="1" stop-color="#4EB066"/>
</linearGradient>
<linearGradient id="paint1_linear_375_830" x1="94.2964" y1="4.4528" x2="94.2964" y2="50.6201" gradientUnits="userSpaceOnUse">
<stop stop-color="#009378"/>
<stop offset="1" stop-color="#4EB066"/>
</linearGradient>
<linearGradient id="paint2_linear_375_830" x1="106.167" y1="10.9087" x2="106.167" y2="33.9087" gradientUnits="userSpaceOnUse">
<stop stop-color="#009378"/>
<stop offset="1" stop-color="#4EB066"/>
</linearGradient>
<linearGradient id="paint3_linear_375_830" x1="15.0837" y1="16.9087" x2="15.0837" y2="44.4087" gradientUnits="userSpaceOnUse">
<stop stop-color="#009378"/>
<stop offset="1" stop-color="#4EB066"/>
</linearGradient>
</defs>
</svg>
