<svg width="36" height="94" viewBox="0 0 36 94" fill="none" xmlns="http://www.w3.org/2000/svg">
<path d="M24.8218 2.09821C24.8218 0.923214 24.1643 0 23.3424 0H12.7396C11.9177 0 11.2602 0.923214 11.2602 2.09821L9.28757 22.9964C9.28757 23.0804 9.28757 23.2482 9.28757 23.3321L0.0820873 91.5661C-0.0822963 92.825 0.65743 94 1.56154 94H34.5204C35.4246 94 36.0821 92.825 35.9999 91.5661L24.8218 2.09821Z" fill="url(#paint0_linear_375_843)"/>
<path d="M31.0682 25.934C30.8216 25.934 30.6572 25.8501 30.4928 25.6822L6.9038 1.51077C6.57503 1.17506 6.57503 0.671484 6.9038 0.33577C7.23257 5.58123e-05 7.72572 5.58123e-05 8.05449 0.33577L31.6435 24.5072C31.9723 24.8429 31.9723 25.3465 31.6435 25.6822C31.4791 25.8501 31.3148 25.934 31.0682 25.934Z" fill="white"/>
<path d="M3.12317 47.1678C2.87659 47.1678 2.63002 47.0838 2.46564 46.8321C2.21906 46.4963 2.30125 45.9088 2.63002 45.6571L31.4793 23.4999C31.8081 23.2481 32.3834 23.3321 32.63 23.6678C32.8766 24.0035 32.7944 24.591 32.4656 24.8428L3.61632 46.9999C3.45194 47.1678 3.28755 47.1678 3.12317 47.1678Z" fill="white"/>
<path d="M35.5064 70.5838C35.342 70.5838 35.1777 70.4999 35.0955 70.416L1.47902 48.2588C1.06807 48.0071 0.985873 47.5035 1.23245 47.0838C1.47902 46.6642 1.97217 46.5803 2.38313 46.8321L35.9996 68.9892C36.4105 69.241 36.4927 69.7446 36.2461 70.1642C36.0818 70.416 35.8352 70.5838 35.5064 70.5838Z" fill="white"/>
<path d="M-1.97281 94.9233C-2.21939 94.9233 -2.54815 94.7554 -2.63034 94.5036C-2.87692 94.084 -2.79473 93.5804 -2.38377 93.3286L35.0957 68.7376C35.5066 68.4858 35.9998 68.5697 36.2464 68.9894C36.4929 69.409 36.4107 69.9126 35.9998 70.1644L-1.47966 94.7554C-1.64404 94.8394 -1.80843 94.9233 -1.97281 94.9233Z" fill="white"/>
<defs>
<linearGradient id="paint0_linear_375_843" x1="18.0264" y1="0.450193" x2="18.0264" y2="94.0562" gradientUnits="userSpaceOnUse">
<stop stop-color="#009378"/>
<stop offset="1" stop-color="#4EB066"/>
</linearGradient>
</defs>
</svg>
