<svg width="127" height="51" viewBox="0 0 127 51" fill="none" xmlns="http://www.w3.org/2000/svg">
<path d="M126.5 24.2L111.4 5.4C111.2 5.2 110.9 5 110.6 5H91.4C91 5 90.6 5.3 90.5 5.7H90.4V25.7V33.3V33.4V39.3H56.6V2.5C56.6 1.8 56.3 1.2 55.9 0.7C55.4 0.3 54.7 0 54.1 0H6.4V2.8V5.8H8.4V5H51.6V39.3H1C0.5 39.3 0 39.7 0 40.3C0 40.8 0.4 41.3 1 41.3H16.1C16.3 46.6 21.2 50.8 27.3 50.8C33.3 50.8 38.2 46.6 38.5 41.3H90.7C91.1 46.4 95.6 50.8 101.5 50.8C107.4 50.8 112.6 46.4 113 41.3H126C126.5 41.3 127 40.9 127 40.3V24.8C126.8 24.6 126.7 24.4 126.5 24.2Z" fill="url(#paint0_linear_375_852)"/>
<path d="M66.5002 34.3999H82.0002C83.5002 34.3999 84.8002 33.0999 84.8002 31.5999V16.1999C84.8002 14.6999 83.5002 13.3999 82.0002 13.3999H66.5002C65.0002 13.3999 63.7002 14.6999 63.7002 16.1999V31.5999C63.7002 33.0999 65.0002 34.3999 66.5002 34.3999Z" fill="url(#paint1_linear_375_852)"/>
<path d="M8.3999 10.5H6.3999V15.3H8.3999V10.5Z" fill="url(#paint2_linear_375_852)"/>
<path d="M8.3999 20H6.3999V23H8.3999V20Z" fill="url(#paint3_linear_375_852)"/>
<path d="M5.4999 32.1C8.4999 32.1 10.9999 29.6 10.9999 26.5V25.9C10.9999 25.4 10.4999 25 9.9999 25H6.3999V27H8.9999C8.8999 28.8 7.2999 30.2 5.4999 30.2C4.4999 30.2 3.4999 29.8 2.8999 29L1.3999 30.3C2.3999 31.5 3.8999 32.1 5.4999 32.1Z" fill="url(#paint4_linear_375_852)"/>
<defs>
<linearGradient id="paint0_linear_375_852" x1="63.3757" y1="0" x2="63.3757" y2="50.6956" gradientUnits="userSpaceOnUse">
<stop stop-color="#009378"/>
<stop offset="1" stop-color="#4EB066"/>
</linearGradient>
<linearGradient id="paint1_linear_375_852" x1="74.2604" y1="13.3639" x2="74.2604" y2="34.3999" gradientUnits="userSpaceOnUse">
<stop stop-color="#009378"/>
<stop offset="1" stop-color="#4EB066"/>
</linearGradient>
<linearGradient id="paint2_linear_375_852" x1="7.4196" y1="10.5455" x2="7.4196" y2="15.296" gradientUnits="userSpaceOnUse">
<stop stop-color="#009378"/>
<stop offset="1" stop-color="#4EB066"/>
</linearGradient>
<linearGradient id="paint3_linear_375_852" x1="7.4196" y1="20.046" x2="7.4196" y2="23.0158" gradientUnits="userSpaceOnUse">
<stop stop-color="#009378"/>
<stop offset="1" stop-color="#4EB066"/>
</linearGradient>
<linearGradient id="paint4_linear_375_852" x1="6.1909" y1="24.9546" x2="6.1909" y2="32.1417" gradientUnits="userSpaceOnUse">
<stop stop-color="#009378"/>
<stop offset="1" stop-color="#4EB066"/>
</linearGradient>
</defs>
</svg>
