<svg width="142" height="69" viewBox="0 0 142 69" fill="none" xmlns="http://www.w3.org/2000/svg">
<path d="M119.935 0H-0.195801V15.5493H119.935V0Z" fill="url(#paint0_linear_375_868)"/>
<path d="M125.526 42.9551L110.521 24.3931C110.325 24.1988 110.031 24.0044 109.737 24.0044H90.81C90.3197 24.0044 90.0255 24.2959 89.9274 24.6847H89.8294V44.3157V51.7016V51.7988V57.6297H1.17744C0.589042 57.6297 0.196777 58.0185 0.196777 58.6016C0.196777 59.1847 0.589042 59.5734 1.17744 59.5734H16.2796V59.6706C16.2796 65.0157 21.281 69.2917 27.3611 69.2917C33.4412 69.2917 38.4426 64.9185 38.4426 59.6706V59.5734H90.0255C90.1236 64.8213 95.0269 69.0002 101.107 69.0002C107.089 69.0002 111.992 64.8213 112.188 59.5734H124.839C125.427 59.5734 125.82 59.1847 125.82 58.6016V43.5382C125.82 43.3438 125.722 43.1495 125.526 42.9551Z" fill="url(#paint1_linear_375_868)"/>
<path d="M5.19808 53.4508H76.1981C79.042 53.4508 81.2975 51.2156 81.2975 48.3973V24.6846C81.2975 21.8663 79.042 19.6311 76.1981 19.6311H5.19808C2.35416 19.6311 0.0986328 21.8663 0.0986328 24.6846V48.3973C0.0986328 51.2156 2.35416 53.4508 5.19808 53.4508Z" fill="url(#paint2_linear_375_868)"/>
<path d="M139.352 10.2043H139.451V9.42684C139.451 9.13529 139.549 8.84374 139.549 8.55219C139.549 8.26064 139.549 7.96909 139.451 7.67754V7.28881H139.352C138.764 3.79022 135.724 1.06909 131.997 1.06909C127.879 1.06909 124.544 4.37332 124.544 8.45501C124.544 12.5367 127.879 15.8409 131.997 15.8409C135.528 15.9381 138.568 13.5085 139.352 10.2043Z" fill="url(#paint3_linear_375_868)"/>
<path d="M139.451 14.8691H137.489V19.5339H139.451V14.8691Z" fill="url(#paint4_linear_375_868)"/>
<path d="M139.451 24.1987H137.489V27.1142H139.451V24.1987Z" fill="url(#paint5_linear_375_868)"/>
<path d="M142 29.9325C142 29.4466 141.51 29.0579 141.02 29.0579H137.489V31.0015H140.039C139.941 32.7508 138.372 34.2086 136.607 34.2086C135.626 34.2086 134.645 33.8198 133.959 33.0424L132.488 34.3057C133.567 35.4719 135.038 36.1522 136.607 36.1522C139.647 36.1522 142.098 33.7226 142 30.71V29.9325Z" fill="url(#paint6_linear_375_868)"/>
<path d="M102.087 18.2704C101.793 18.2704 101.597 18.1733 101.401 17.9789C101.008 17.5902 101.008 17.0071 101.401 16.6183L121.112 -2.91548C121.504 -3.30421 122.093 -3.30421 122.485 -2.91548C122.877 -2.52675 122.877 -1.94365 122.485 -1.55492L102.774 17.9789C102.577 18.1733 102.283 18.2704 102.087 18.2704Z" fill="white"/>
<path d="M81.0031 18.2704C80.7089 18.2704 80.5128 18.1733 80.3167 17.9789C79.9244 17.5902 79.9244 17.0071 80.3167 16.6183L100.028 -2.91548C100.42 -3.30421 101.009 -3.30421 101.401 -2.91548C101.793 -2.52675 101.793 -1.94365 101.401 -1.55492L81.6896 17.9789C81.4935 18.1733 81.2973 18.2704 81.0031 18.2704Z" fill="white"/>
<path d="M59.6242 18.2704C59.33 18.2704 59.1339 18.1733 58.9378 17.9789C58.5455 17.5902 58.5455 17.0071 58.9378 16.6183L78.7472 -3.01265C79.1394 -3.40138 79.7278 -3.40138 80.1201 -3.01265C80.5123 -2.62392 80.5123 -2.04082 80.1201 -1.65209L60.3107 17.9789C60.1146 18.1733 59.9184 18.2704 59.6242 18.2704Z" fill="white"/>
<path d="M38.2458 18.4648C37.9516 18.4648 37.7555 18.3676 37.5593 18.1732C37.1671 17.7845 37.1671 17.2014 37.5593 16.8127L57.2707 -2.81831C57.6629 -3.20705 58.2513 -3.20705 58.6436 -2.81831C59.0359 -2.42958 59.0359 -1.84648 58.6436 -1.45775L38.9323 18.1732C38.7361 18.3676 38.4419 18.4648 38.2458 18.4648Z" fill="white"/>
<path d="M15.9851 18.2704C15.6909 18.2704 15.4947 18.1733 15.2986 17.9789C14.9063 17.5902 14.9063 17.0071 15.2986 16.6183L35.0099 -3.01265C35.4022 -3.40138 35.9906 -3.40138 36.3828 -3.01265C36.7751 -2.62392 36.7751 -2.04082 36.3828 -1.65209L16.6715 17.9789C16.4754 18.1733 16.1812 18.2704 15.9851 18.2704Z" fill="white"/>
<path d="M-5.58965 18.4648C-5.88385 18.4648 -6.07998 18.3676 -6.27611 18.1732C-6.66838 17.7845 -6.66838 17.2014 -6.27611 16.8127L13.4352 -2.81831C13.8275 -3.20705 14.4159 -3.20705 14.8081 -2.81831C15.2004 -2.42958 15.2004 -1.84648 14.8081 -1.45775L-4.90319 18.1732C-5.09932 18.3676 -5.39352 18.4648 -5.58965 18.4648Z" fill="white"/>
<path d="M14.4157 17.7844C13.8273 17.7844 13.4351 17.3956 13.4351 16.8125V-2.91562C13.4351 -3.49872 13.8273 -3.88745 14.4157 -3.88745C15.0041 -3.88745 15.3964 -3.49872 15.3964 -2.91562V16.8125C15.3964 17.3956 15.0041 17.7844 14.4157 17.7844Z" fill="white"/>
<path d="M36.4807 17.493C35.8923 17.493 35.5 17.1042 35.5 16.5211V-2.2352C35.5 -2.8183 35.8923 -3.20703 36.4807 -3.20703C37.0691 -3.20703 37.4613 -2.8183 37.4613 -2.2352V16.5211C37.4613 17.1042 37.0691 17.493 36.4807 17.493Z" fill="white"/>
<path d="M58.3498 18.7563C57.7614 18.7563 57.3691 18.3675 57.3691 17.7844V-3.20712C57.3691 -3.79022 57.7614 -4.17896 58.3498 -4.17896C58.9382 -4.17896 59.3305 -3.79022 59.3305 -3.20712V17.8816C59.3305 18.3675 58.9382 18.7563 58.3498 18.7563Z" fill="white"/>
<path d="M79.6301 19.4366C79.0417 19.4366 78.6494 19.0478 78.6494 18.4647V-4.85922C78.6494 -5.44232 79.0417 -5.83105 79.6301 -5.83105C80.2185 -5.83105 80.6107 -5.44232 80.6107 -4.85922V18.4647C80.6107 19.0478 80.2185 19.4366 79.6301 19.4366Z" fill="white"/>
<path d="M101.204 22.1577C100.616 22.1577 100.224 21.7689 100.224 21.1858V-4.85922C100.224 -5.44232 100.616 -5.83105 101.204 -5.83105C101.793 -5.83105 102.185 -5.44232 102.185 -4.85922V21.1858C102.185 21.7689 101.793 22.1577 101.204 22.1577Z" fill="white"/>
<path d="M112.482 41.983H97.9685C97.8705 41.983 97.6743 41.8858 97.6743 41.6914V38.6788C97.6743 38.5816 97.7724 38.3872 97.9685 38.3872H112.482C112.58 38.3872 112.777 38.4844 112.777 38.6788V41.6914C112.777 41.8858 112.678 41.983 112.482 41.983Z" fill="white"/>
<defs>
<linearGradient id="paint0_linear_375_868" x1="59.8411" y1="0.0111754" x2="59.8411" y2="15.5605" gradientUnits="userSpaceOnUse">
<stop stop-color="#009378"/>
<stop offset="1" stop-color="#4EB066"/>
</linearGradient>
<linearGradient id="paint1_linear_375_868" x1="63.0004" y1="24.0495" x2="63.0004" y2="69.3786" gradientUnits="userSpaceOnUse">
<stop stop-color="#009378"/>
<stop offset="1" stop-color="#4EB066"/>
</linearGradient>
<linearGradient id="paint2_linear_375_868" x1="40.6711" y1="19.6488" x2="40.6711" y2="53.4833" gradientUnits="userSpaceOnUse">
<stop stop-color="#009378"/>
<stop offset="1" stop-color="#4EB066"/>
</linearGradient>
<linearGradient id="paint3_linear_375_868" x1="132.028" y1="1.14499" x2="132.028" y2="15.9654" gradientUnits="userSpaceOnUse">
<stop stop-color="#009378"/>
<stop offset="1" stop-color="#4EB066"/>
</linearGradient>
<linearGradient id="paint4_linear_375_868" x1="138.463" y1="14.8991" x2="138.463" y2="19.5627" gradientUnits="userSpaceOnUse">
<stop stop-color="#009378"/>
<stop offset="1" stop-color="#4EB066"/>
</linearGradient>
<linearGradient id="paint5_linear_375_868" x1="138.463" y1="24.2259" x2="138.463" y2="27.1414" gradientUnits="userSpaceOnUse">
<stop stop-color="#009378"/>
<stop offset="1" stop-color="#4EB066"/>
</linearGradient>
<linearGradient id="paint6_linear_375_868" x1="137.246" y1="29.0447" x2="137.246" y2="36.1004" gradientUnits="userSpaceOnUse">
<stop stop-color="#009378"/>
<stop offset="1" stop-color="#4EB066"/>
</linearGradient>
</defs>
</svg>
